<svg width="61" height="41" viewBox="0 0 61 41" fill="none" xmlns="http://www.w3.org/2000/svg">
<path d="M30 5.30019C30 8.3452 30.14 10.2002 30.35 10.2002C30.56 10.2002 30.7 9.2902 30.7 8.1352V6.10519L34.235 4.77519C36.16 4.04019 37.595 3.34019 37.455 3.16519C37.175 2.88519 30.735 0.400194 30.28 0.400194C30.105 0.400194 30 2.60519 30 5.30019Z" fill="white"/>
<path d="M18.4497 6.14015C18.4497 8.90515 18.5897 10.9351 18.7997 11.0751C19.0097 11.2151 19.1497 10.5151 19.1497 9.18515V7.12015L21.8797 6.07015C23.3497 5.51015 24.9597 4.91515 25.4147 4.77515C25.8347 4.63515 26.0797 4.39015 25.9397 4.25015C25.5897 3.90015 19.2897 1.45015 18.7647 1.45015C18.5897 1.45015 18.4497 3.55015 18.4497 6.14015Z" fill="white"/>
<path d="M41.5498 6.17515C41.5498 9.08015 41.6898 10.9001 41.8998 10.9001C42.1098 10.9001 42.2498 10.0251 42.2498 8.97515C42.2498 7.19015 42.3198 7.01515 43.2298 6.66515C47.4648 5.09015 48.8998 4.49515 48.8998 4.25015C48.8998 4.00515 42.4948 1.45015 41.8648 1.45015C41.6898 1.45015 41.5498 3.58515 41.5498 6.17515Z" fill="white"/>
<path d="M6.8999 10.025C6.8999 12.93 7.0399 14.75 7.2499 14.75C7.4599 14.75 7.5999 13.91 7.5999 12.86V10.97L10.3299 9.92C11.7999 9.36 13.3749 8.8 13.8299 8.66C14.2499 8.52 14.5999 8.275 14.5999 8.135C14.5999 7.925 7.7399 5.265 7.1799 5.3C7.0049 5.3 6.8999 7.435 6.8999 10.025Z" fill="white"/>
<path d="M53.1001 10.2C53.1001 13.385 53.2401 15.065 53.4501 14.925C53.6601 14.82 53.8001 13.875 53.8001 12.825V10.97L56.1801 10.06C57.4751 9.57001 58.9451 9.01001 59.5051 8.83501C60.0301 8.62501 60.4501 8.34501 60.4501 8.17001C60.4501 7.96001 57.7201 6.84001 53.5551 5.37001C53.2051 5.26501 53.1001 6.38501 53.1001 10.2Z" fill="white"/>
<path d="M24.925 11.6C14.88 12.335 6.41002 14.89 3.08502 18.215C0.915019 20.385 0.915019 22.415 3.08502 24.585L4.41502 25.915L6.62002 24.9C9.38502 23.64 13.725 22.38 18.275 21.54C21.04 21.015 23.56 20.91 30.35 20.91C37.14 20.91 39.66 21.015 42.425 21.54C46.835 22.345 51.105 23.57 53.94 24.865L56.11 25.845L56.985 25.145C59.785 22.87 59.715 20.035 56.775 17.445C55.48 16.325 51.175 14.435 47.85 13.525C41.55 11.845 32.31 11.075 24.925 11.6Z" fill="white"/>
<path d="M0.389906 24.0601C0.249906 24.5501 0.249906 26.3701 0.319906 28.0851C0.564906 31.8651 1.19491 33.0201 4.16991 35.0151C17.2599 43.8701 54.4299 41.7351 59.6099 31.8301C60.2049 30.6751 60.3099 23.5001 59.7149 23.5001C59.5049 23.5001 58.9799 23.9551 58.5249 24.4801C54.7449 28.9601 38.4349 32.2501 24.9949 31.2001C13.7249 30.3601 5.70991 27.9451 2.24491 24.3751C1.57991 23.7101 0.949906 23.1501 0.844906 23.1501C0.704906 23.1501 0.494906 23.5701 0.389906 24.0601Z" fill="white"/>
</svg>
