<svg width="40" height="23" viewBox="0 0 40 23" fill="none" xmlns="http://www.w3.org/2000/svg">
<g clip-path="url(#clip0_777_97)">
<path d="M20.4421 18.0983L20.3574 17.8509L26.8748 12.2516L26.9594 12.4989L20.4421 18.0983Z" fill="white"/>
<path d="M13.465 15.4856L7.11523 5.06124L7.3159 4.89352L13.6655 15.3179L13.465 15.4856Z" fill="white"/>
<path d="M18.4202 1.90247L12.2363 1.87397V1.61253L18.4202 1.64103V1.90247Z" fill="white"/>
<path d="M29.6226 3.52405H22.6945C21.756 3.52405 20.9951 2.76322 20.9951 1.8247C20.9951 0.886174 21.756 0.125351 22.6945 0.125351H29.6226C30.5611 0.125351 31.3219 0.886174 31.3219 1.8247C31.3219 2.76322 30.5611 3.52405 29.6226 3.52405Z" fill="white"/>
<path d="M38.25 13.4587H31.3219C30.3835 13.4587 29.6226 12.6979 29.6226 11.7593C29.6226 10.8208 30.3835 10.06 31.3219 10.06H38.25C39.1886 10.06 39.9494 10.8208 39.9494 11.7593C39.9494 12.6979 39.1886 13.4587 38.25 13.4587Z" fill="white"/>
<path d="M27.0477 20.4644L20.8638 20.4361V20.1746L27.0477 20.203V20.4644Z" fill="white"/>
<path d="M38.25 22.0861H31.3219C30.3835 22.0861 29.6226 21.3254 29.6226 20.3868C29.6226 19.4482 30.3835 18.6875 31.3219 18.6875H38.25C39.1886 18.6875 39.9494 19.4482 39.9494 20.3868C39.9494 21.3254 39.1886 22.0861 38.25 22.0861Z" fill="white"/>
<path d="M17.9883 20.915H11.0602C10.1217 20.915 9.36084 20.1543 9.36084 19.2157C9.36084 18.2771 10.1217 17.5163 11.0602 17.5163H17.9883C18.9268 17.5163 19.6876 18.2771 19.6876 19.2157C19.6876 20.1543 18.9268 20.915 17.9883 20.915Z" fill="white"/>
<path d="M8.57667 3.39869H1.64856C0.710044 3.39869 -0.0507812 2.63787 -0.0507812 1.69935C-0.0507812 0.760824 0.710044 0 1.64856 0H8.57667C9.51519 0 10.276 0.760824 10.276 1.69935C10.276 2.63787 9.51519 3.39869 8.57667 3.39869Z" fill="white"/>
</g>
<defs>
<clipPath id="clip0_777_97">
<rect width="40" height="22.0915" fill="white"/>
</clipPath>
</defs>
</svg>
