<svg width="30" height="33" viewBox="0 0 30 33" fill="none" xmlns="http://www.w3.org/2000/svg">
<g clip-path="url(#clip0_911_113)">
<path d="M24.2631 0.582554L5.41892 0.725341C2.72735 0.745735 0.561943 2.94421 0.582338 5.63577L0.744819 27.0792C0.765213 29.7708 2.96369 31.9362 5.65525 31.9158L24.4995 31.773C27.191 31.7526 29.3564 29.5541 29.3361 26.8626L29.1736 5.41913C29.1532 2.72757 26.9547 0.56216 24.2631 0.582554Z" stroke="white" stroke-width="10"/>
<path d="M23.21 10.1439L6.55772 10.27C6.48022 10.2711 6.40326 10.2558 6.33128 10.225C6.2593 10.1941 6.19371 10.1483 6.13829 10.0903C6.08287 10.0322 6.03872 9.96298 6.00837 9.8866C5.97802 9.81023 5.96207 9.7282 5.96145 9.64523C5.96082 9.56226 5.97551 9.48 6.00471 9.40317C6.0339 9.32634 6.077 9.25647 6.13154 9.19757C6.18607 9.13867 6.25094 9.09191 6.32245 9.05996C6.39395 9.02802 6.47068 9.01153 6.54819 9.01146L23.2005 8.88528C23.3558 8.88512 23.5048 8.95074 23.6152 9.06782C23.7257 9.18489 23.7883 9.34391 23.7896 9.51014C23.7908 9.67638 23.7305 9.83632 23.622 9.95505C23.5134 10.0738 23.3653 10.1417 23.21 10.1439Z" fill="white"/>
<path d="M23.2437 14.5997L6.5914 14.7259C6.5139 14.727 6.43694 14.7117 6.36496 14.6808C6.29298 14.65 6.22739 14.6042 6.17197 14.5461C6.11656 14.4881 6.0724 14.4189 6.04205 14.3425C6.01171 14.2661 5.99577 14.184 5.99514 14.1011C5.9945 14.0181 6.00921 13.9359 6.03839 13.859C6.06758 13.7822 6.11069 13.7124 6.16522 13.6535C6.21975 13.5946 6.28463 13.5478 6.35613 13.5158C6.42764 13.4839 6.50436 13.4674 6.58187 13.4673L23.2341 13.3411C23.3894 13.341 23.5386 13.4066 23.6489 13.5237C23.7593 13.6408 23.822 13.7998 23.8232 13.966C23.8245 14.1323 23.7643 14.2922 23.6557 14.4109C23.5471 14.5296 23.399 14.5976 23.2437 14.5997Z" fill="white"/>
<path d="M23.2774 19.0563L6.62509 19.1825C6.54759 19.1835 6.47063 19.1682 6.39865 19.1373C6.32667 19.1065 6.26108 19.0607 6.20567 19.0027C6.15025 18.9446 6.10609 18.8754 6.07575 18.799C6.0454 18.7226 6.02946 18.6406 6.02883 18.5577C6.02819 18.4747 6.0429 18.3924 6.07209 18.3156C6.10127 18.2387 6.14438 18.1689 6.19891 18.1099C6.25344 18.051 6.31832 18.0043 6.38983 17.9724C6.46133 17.9404 6.53805 17.924 6.61556 17.9239L23.2679 17.7977C23.4232 17.7975 23.5722 17.8631 23.6827 17.9802C23.793 18.0973 23.8556 18.2563 23.8569 18.4225C23.8581 18.5887 23.7979 18.7487 23.6894 18.8674C23.5808 18.9862 23.4327 19.054 23.2774 19.0563Z" fill="white"/>
<path d="M23.3114 23.5126L6.65909 23.6388C6.50317 23.64 6.35314 23.5748 6.24199 23.4576C6.13084 23.3404 6.06769 23.1808 6.06643 23.0139C6.06516 22.847 6.12588 22.6865 6.23525 22.5676C6.3446 22.4488 6.49364 22.3813 6.64955 22.3801L23.3018 22.2539C23.4578 22.2527 23.6078 22.3179 23.7189 22.4351C23.8301 22.5523 23.8933 22.7119 23.8946 22.8788C23.8958 23.0457 23.835 23.2062 23.7257 23.3252C23.6163 23.444 23.4673 23.5114 23.3114 23.5126Z" fill="white"/>
</g>
<defs>
<clipPath id="clip0_911_113">
<rect width="30" height="32.5993" fill="white"/>
</clipPath>
</defs>
</svg>
