<svg width="279" height="279" viewBox="0 0 279 279" fill="none" xmlns="http://www.w3.org/2000/svg">
<circle cx="139.5" cy="139.5" r="139.5" fill="white"/>
<path fill-rule="evenodd" clip-rule="evenodd" d="M130.024 10.3469C122.66 10.821 113.09 12.4191 106.917 14.2052C105.951 14.4845 104.188 14.985 102.999 15.3171C97.2524 16.9212 89.482 19.9802 83.0001 23.1892C75.9574 26.6762 74.4095 27.5656 68.0472 31.7857C64.2866 34.2792 64.213 34.3327 61.1335 36.7579C59.9572 37.6837 58.4371 38.8564 57.7554 39.3623C51.7322 43.8361 40.5736 55.7877 34.7605 63.9933C33.7943 65.3567 32.4971 67.1827 31.8776 68.0504C31.2574 68.9188 30.5527 70.0123 30.3108 70.481C30.0683 70.9497 29.3285 72.1711 28.667 73.195C28.0049 74.2189 27.4637 75.1245 27.4637 75.2077C27.4637 75.2909 27.0057 76.1214 26.4456 77.054C23.0607 82.693 17.0003 97.4141 15.6768 103.215C15.4538 104.191 14.9167 106.109 14.4823 107.477C13.1432 111.696 11.6487 120.286 11.2906 125.82C10.9285 131.417 10.8988 145.536 11.2352 152.061C11.571 158.577 12.5527 164.562 14.2762 170.591C14.7221 172.154 15.3099 174.467 15.5822 175.731C16.2328 178.76 17.6469 182.763 18.3057 183.441C18.8178 183.969 19.2306 183.984 34.9706 184.048C43.8476 184.084 51.2586 184.114 51.4389 184.115C52.5341 184.122 54.6015 187.008 54.3104 188.124L54.1556 188.716L38.1744 188.72C20.4271 188.724 20.7818 188.691 20.9196 190.356C21.0244 191.611 26.5429 202.658 27.4043 203.336C28.0583 203.851 28.6245 203.865 47.298 203.865C68.6937 203.865 67.7607 203.785 69.8139 205.815C72.611 208.579 73.4224 208.464 51.1478 208.464C28.2063 208.464 29.2927 208.132 33.6754 213.811C33.9896 214.218 35.3902 216.073 36.7874 217.933C38.1846 219.792 39.6263 221.679 39.9912 222.126L40.6546 222.937L67.7728 223.074C98.4421 223.229 94.9005 222.965 99.6204 225.446C102.349 226.881 102.49 227.521 100.135 227.767C99.2137 227.863 86.8788 227.942 72.7238 227.942C44.4239 227.942 45.7495 227.863 46.794 229.496C47.9311 231.275 57.4392 239.929 59.4201 240.988L60.5693 241.603H139.617C215.181 241.603 218.705 241.582 219.555 241.117C220.044 240.85 221.088 240.058 221.873 239.359C222.658 238.659 223.941 237.549 224.721 236.893C226.89 235.072 232.854 229.137 232.854 228.8C232.854 228.005 231.292 227.953 204.903 227.881C176.883 227.804 177.479 227.827 177.456 226.812C177.454 226.711 178.997 225.859 180.884 224.918L184.315 223.208L211.355 223.067C226.226 222.99 238.416 222.899 238.444 222.864C238.471 222.83 239.631 221.372 241.023 219.623C242.414 217.875 243.949 215.815 244.434 215.045C244.918 214.276 245.49 213.501 245.703 213.323C247.071 212.187 248.16 208.963 247.29 208.629C247.055 208.538 238.351 208.464 227.949 208.464C205.853 208.464 206.91 208.609 209.363 205.923C211.326 203.773 210.269 203.869 231.975 203.867C253.844 203.865 251.762 204.096 252.888 201.547C253.175 200.898 253.882 199.532 254.459 198.513C257.175 193.715 258.693 189.572 257.919 189.071C257.733 188.95 250.359 188.791 241.531 188.716C227.226 188.596 225.451 188.534 225.208 188.15C224.804 187.508 225.149 186.539 226.235 185.27L227.203 184.137L243.669 184.06C262.715 183.97 260.712 184.337 261.855 180.736C262.232 179.546 262.743 177.963 262.99 177.219C263.237 176.475 263.594 175.197 263.785 174.379C263.976 173.56 264.396 172.039 264.72 170.997C265.571 168.264 266.548 163.552 266.881 160.582C267.04 159.169 267.353 156.977 267.577 155.713C268.043 153.087 268.167 127.827 267.73 124.603C267.599 123.636 267.291 121.323 267.046 119.463C266.042 111.846 262.702 99.4775 259.742 92.4108C258.962 90.551 258.012 88.238 257.631 87.2709C256.586 84.6259 251.867 75.5053 250.378 73.2518C249.658 72.1616 249.069 71.2006 249.069 71.1154C249.069 70.9517 246.686 67.3511 243.934 63.3582C243.022 62.0347 241.464 59.9821 240.47 58.7972C239.477 57.6117 238.143 56.0169 237.506 55.252C232.343 49.0531 222.779 40.1123 216.284 35.4134C210.405 31.1608 209.484 30.5399 207.315 29.3618C206.72 29.0386 205.565 28.3271 204.748 27.78C203.93 27.2335 201.741 26.0074 199.883 25.0558C198.025 24.1036 195.731 22.9275 194.786 22.4406C193.84 21.9543 192.624 21.4112 192.083 21.234C191.543 21.0562 190.857 20.7586 190.559 20.5726C189.554 19.9423 183.828 17.8079 179.479 16.4431C161.725 10.871 148.052 9.1857 130.024 10.3469ZM152.995 38.431C154.778 38.6813 157.15 39.0708 158.265 39.2974C159.379 39.524 161.418 39.9358 162.795 40.2124C165.703 40.7961 166.97 41.425 166.855 42.2258C166.78 42.7553 166.577 42.7709 159.346 42.7946C151.193 42.8216 146.588 43.3079 141.302 44.7004C139.855 45.0811 138.063 45.5478 137.32 45.7365C136.577 45.9252 135.483 46.2897 134.888 46.546C134.293 46.803 133.199 47.1966 132.456 47.4205C128.869 48.5019 118.054 54.661 114.039 57.9092C101.654 67.928 93.5277 80.2225 88.8192 96.0628C87.6018 100.159 87.1957 102.373 86.3552 109.499C86.0282 112.272 86.1755 120.494 86.6039 123.385C86.7356 124.278 86.993 126.226 87.1754 127.714C88.2618 136.579 95.8727 153.465 101.512 159.52C101.735 159.759 102.667 160.918 103.583 162.095C105.665 164.768 112.681 171.339 115.781 173.517C123.854 179.191 128.172 181.57 134.847 184.023C145.705 188.012 161.025 189.155 171.912 186.788C177.388 185.598 185.439 183.102 188.15 181.753C190.968 180.352 195.24 178.02 195.964 177.486C196.41 177.158 197.4 176.574 198.163 176.187C198.926 175.8 200.907 174.352 202.567 172.97C204.225 171.588 206.094 170.03 206.719 169.509C208.507 168.02 212.551 163.843 214.472 161.501C215.436 160.326 216.301 159.304 216.397 159.229C217.163 158.628 221.706 151.023 223.402 147.504C227.619 138.75 229.409 132.651 230.559 123.118C230.992 119.535 231.444 118.278 232.243 118.432C234.221 118.814 233.472 141.352 231.188 150.167C230.879 151.357 230.411 153.244 230.147 154.36C229.883 155.476 229.342 157.241 228.946 158.283C228.549 159.324 227.951 161.15 227.616 162.34C226.876 164.972 222.176 174.706 220.076 177.956C219.238 179.254 218.37 180.668 218.149 181.096C217.07 183.185 209.629 192.514 207.324 194.668C206.767 195.189 205.686 196.241 204.921 197.006C202.442 199.488 196.746 204.227 194.937 205.312C194.403 205.633 193.19 206.464 192.241 207.16C189.005 209.536 183.798 212.423 179.885 214.013C178.918 214.406 177.459 215.069 176.642 215.488C172.964 217.369 161.058 220.691 154.133 221.767C146.488 222.954 130.711 222.5 124.503 220.913C123.304 220.607 121.378 220.177 120.22 219.957C116.164 219.186 109.388 217.074 105.971 215.513C105.377 215.242 104.13 214.699 103.202 214.308C100.147 213.023 95.6288 210.654 92.8642 208.887C89.2537 206.581 86.8586 204.969 85.6323 204.019C80.5807 200.109 74.9932 194.933 72.7211 192.059C72.1502 191.336 71.3104 190.38 70.8551 189.934C70.3997 189.487 69.5457 188.453 68.9586 187.634C68.3708 186.816 67.3756 185.564 66.7473 184.852C65.5926 183.545 64.4109 181.641 64.0623 180.53C63.9576 180.197 63.3117 179.07 62.6259 178.025C61.9409 176.981 60.6707 174.729 59.8039 173.021C58.9364 171.313 57.7628 169.185 57.1953 168.292C56.6277 167.399 55.9015 165.817 55.5812 164.775C55.261 163.734 54.7151 162.151 54.3678 161.258C52.6814 156.924 50.9457 150.172 50.2992 145.433C50.0654 143.722 49.7688 141.626 49.6391 140.776C48.1487 131.003 49.8681 112.303 53.1287 102.821C53.7415 101.038 54.6448 98.4231 55.136 97.0097C57.5034 90.1925 64.0792 78.7143 69.4714 71.9865C71.8989 68.958 80.5766 60.0964 82.0866 59.1036C82.6251 58.7499 83.8676 57.7828 84.8486 56.955C85.8296 56.1265 86.9707 55.2791 87.3835 55.0715C87.797 54.8638 89.1685 53.9562 90.4319 53.0554C94.3648 50.2501 95.5984 49.5833 105.701 44.8045C106.593 44.3825 108.222 43.7738 109.322 43.4519C110.421 43.1293 111.586 42.6918 111.91 42.4794C113.742 41.2776 127.273 38.5088 133.672 38.0273C138.247 37.6824 149.309 37.9137 152.995 38.431ZM68.6343 246.375L67.5114 246.629L68.2289 247.375C68.6241 247.785 69.4335 248.428 70.0281 248.804C70.6226 249.181 71.8063 249.937 72.659 250.483C73.5109 251.03 74.2737 251.477 74.3534 251.477C74.4332 251.477 74.9514 251.762 75.506 252.11C76.6715 252.842 81.7346 255.569 84.0216 256.697C86.6667 258.001 86.1437 257.99 140.834 257.91L192.721 257.834L198.01 255.094C206.958 250.458 212.173 246.992 211.037 246.436C210.37 246.11 70.0679 246.05 68.6343 246.375ZM103.469 263.132C104.407 264.685 111.243 266.43 121.376 267.702C122.713 267.871 124.587 268.187 125.54 268.406C129.323 269.273 147.727 269.167 153.941 268.242C154.907 268.098 156.731 267.857 157.994 267.705C166.557 266.676 174.003 264.808 175.919 263.207L176.683 262.569H139.906H103.129L103.469 263.132Z" fill="black"/>
</svg>
