<svg width="70" height="70" viewBox="0 0 70 70" fill="none" xmlns="http://www.w3.org/2000/svg">
<circle cx="35" cy="35" r="35" fill="black"/>
<path fill-rule="evenodd" clip-rule="evenodd" d="M32.6252 2.59632C30.7777 2.71526 28.3766 3.11622 26.8279 3.56435C26.5855 3.63443 26.1431 3.75999 25.8448 3.84331C24.4031 4.24579 22.4535 5.01326 20.8272 5.8184C19.0602 6.69328 18.6719 6.91641 17.0756 7.97522C16.1321 8.60084 16.1136 8.61425 15.341 9.22272C15.0459 9.45502 14.6645 9.74925 14.4934 9.87617C12.9822 10.9986 10.1826 13.9972 8.72411 16.056C8.48171 16.3981 8.15624 16.8562 8.0008 17.0739C7.84519 17.2918 7.66839 17.5661 7.6077 17.6837C7.54685 17.8013 7.36123 18.1078 7.19528 18.3647C7.02916 18.6216 6.89338 18.8488 6.89338 18.8696C6.89338 18.8905 6.77845 19.0989 6.63793 19.3329C5.78868 20.7477 4.26816 24.4411 3.93609 25.8967C3.88015 26.1415 3.74539 26.6227 3.63639 26.966C3.30042 28.0245 2.92546 30.1796 2.83562 31.5681C2.74476 32.9724 2.7373 36.5148 2.82172 38.1518C2.90596 39.7866 3.15226 41.2883 3.58469 42.801C3.69657 43.193 3.84404 43.7733 3.91235 44.0906C4.07559 44.8504 4.43038 45.8548 4.59565 46.025C4.72414 46.1573 4.82772 46.1611 8.77682 46.1772C11.004 46.1862 12.8634 46.1938 12.9087 46.1942C13.1834 46.1959 13.7022 46.9199 13.6291 47.1999L13.5903 47.3485L9.58065 47.3495C5.12792 47.3505 5.21691 47.3422 5.25149 47.7598C5.27777 48.0747 6.66234 50.8463 6.87847 51.0165C7.04255 51.1456 7.1846 51.1494 11.8697 51.1494C17.2378 51.1494 17.0037 51.1292 17.5189 51.6384C18.2206 52.3321 18.4242 52.3032 12.8356 52.3032C7.07968 52.3032 7.35225 52.2199 8.45187 53.6445C8.53069 53.7467 8.88209 54.2121 9.23264 54.6787C9.58319 55.1454 9.94493 55.6188 10.0365 55.7308L10.2029 55.9344L17.0068 55.9687C24.7016 56.0075 23.813 55.9413 24.9972 56.5639C25.6817 56.9238 25.7173 57.0843 25.1262 57.1461C24.8952 57.1702 21.8004 57.19 18.249 57.19C11.1486 57.19 11.4812 57.1702 11.7433 57.58C12.0286 58.0262 14.4141 60.1976 14.9111 60.4634L15.1994 60.6176H35.0323C53.9908 60.6176 54.875 60.6122 55.0884 60.4956C55.2111 60.4286 55.4728 60.2301 55.6698 60.0544C55.8669 59.879 56.1887 59.6005 56.3845 59.4359C56.9286 58.979 58.4249 57.4899 58.4249 57.4054C58.4249 57.2058 58.033 57.1929 51.4122 57.1748C44.382 57.1554 44.5317 57.1612 44.5259 56.9065C44.5254 56.8812 44.9124 56.6674 45.3859 56.4314L46.2468 56.0023L53.0308 55.967C56.7621 55.9476 59.8205 55.9247 59.8274 55.9161C59.8342 55.9076 60.1254 55.5416 60.4746 55.103C60.8236 54.6643 61.2088 54.1475 61.3303 53.9544C61.4518 53.7613 61.5952 53.5668 61.6488 53.5222C61.9919 53.2373 62.2652 52.4283 62.0468 52.3444C61.9878 52.3217 59.8042 52.3032 57.1944 52.3032C51.6505 52.3032 51.9158 52.3395 52.5311 51.6657C53.0237 51.1261 52.7584 51.1502 58.2045 51.1497C63.6913 51.1494 63.1688 51.2072 63.4514 50.5677C63.5234 50.4048 63.7009 50.062 63.8457 49.8063C64.5271 48.6026 64.908 47.5631 64.7137 47.4374C64.6671 47.4072 62.8169 47.3672 60.6019 47.3485C57.0128 47.3183 56.5675 47.3029 56.5067 47.2063C56.4053 47.0453 56.4919 46.8023 56.7643 46.4838L57.0072 46.1996L61.1384 46.1802C65.9171 46.1577 65.4143 46.2496 65.7012 45.3463C65.7959 45.0476 65.9241 44.6506 65.9861 44.4639C66.048 44.2773 66.1376 43.9566 66.1854 43.7512C66.2332 43.5459 66.3389 43.1641 66.4201 42.9028C66.6335 42.217 66.8787 41.0348 66.9623 40.2897C67.0022 39.9351 67.0806 39.3853 67.1369 39.068C67.2537 38.4093 67.2849 32.0715 67.1752 31.2627C67.1423 31.02 67.065 30.4397 67.0037 29.9731C66.7516 28.062 65.9137 24.9588 65.1711 23.1858C64.9755 22.7192 64.7371 22.1389 64.6414 21.8962C64.3791 21.2326 63.1953 18.9443 62.8217 18.3789C62.641 18.1054 62.4931 17.8643 62.4931 17.8429C62.4931 17.8018 61.8953 16.8984 61.205 15.8966C60.9762 15.5646 60.5851 15.0496 60.3358 14.7523C60.0866 14.4549 59.752 14.0547 59.5921 13.8628C58.2967 12.3075 55.8971 10.0643 54.2676 8.8854C52.7925 7.81844 52.5616 7.66267 52.0173 7.36708C51.8682 7.28598 51.5783 7.10747 51.3732 6.9702C51.1681 6.8331 50.6189 6.52546 50.1527 6.28672C49.6866 6.04781 49.1111 5.75273 48.8737 5.63056C48.6366 5.50856 48.3315 5.37231 48.1957 5.32785C48.0601 5.28322 47.888 5.20856 47.8135 5.1619C47.5612 5.00376 46.1244 4.46824 45.0335 4.12583C40.579 2.72782 37.1485 2.30497 32.6252 2.59632ZM38.3886 9.64252C38.8361 9.7053 39.4311 9.80304 39.7108 9.85988C39.9905 9.91672 40.5019 10.0201 40.8474 10.0895C41.5771 10.2359 41.895 10.3937 41.8661 10.5946C41.8472 10.7275 41.7963 10.7314 39.982 10.7373C37.9365 10.7441 36.7813 10.8661 35.4549 11.2155C35.092 11.311 34.6424 11.4281 34.4559 11.4754C34.2695 11.5228 33.9949 11.6142 33.8457 11.6785C33.6965 11.743 33.4219 11.8418 33.2355 11.8979C32.3355 12.1692 29.6222 13.7145 28.6148 14.5295C25.5074 17.0432 23.4686 20.1278 22.2872 24.1021C21.9818 25.1299 21.8799 25.6852 21.669 27.4732C21.587 28.1689 21.6239 30.2317 21.7314 30.9572C21.7645 31.1812 21.829 31.6699 21.8748 32.0432C22.1474 34.2676 24.0569 38.5042 25.4718 40.0232C25.5278 40.0832 25.7615 40.3741 25.9914 40.6693C26.5137 41.3401 28.274 42.9885 29.0518 43.5351C31.0774 44.9587 32.1606 45.5555 33.8355 46.1709C36.5596 47.1719 40.4033 47.4586 43.1349 46.8647C44.5087 46.5661 46.5287 45.9398 47.209 45.6015C47.916 45.25 48.9877 44.6648 49.1695 44.5309C49.2814 44.4486 49.5296 44.302 49.7211 44.205C49.9125 44.1079 50.4097 43.7446 50.826 43.3978C51.2422 43.051 51.711 42.6602 51.8678 42.5295C52.3164 42.1559 53.3311 41.1078 53.813 40.5202C54.0549 40.2254 54.272 39.969 54.2959 39.9504C54.4881 39.7994 55.6279 37.8915 56.0534 37.0084C57.1115 34.8122 57.5607 33.2819 57.8492 30.8902C57.9577 29.9912 58.0711 29.6758 58.2716 29.7145C58.768 29.8102 58.58 35.465 58.007 37.6766C57.9296 37.9753 57.8121 38.4487 57.7458 38.7287C57.6795 39.0086 57.5439 39.4515 57.4444 39.7128C57.3449 39.9741 57.1947 40.4323 57.1108 40.7309C56.925 41.3911 55.7459 43.8334 55.2191 44.6489C55.0087 44.9745 54.7911 45.3291 54.7355 45.4365C54.4647 45.9607 52.5979 48.3013 52.0197 48.8417C51.8799 48.9724 51.6086 49.2364 51.4168 49.4283C50.7948 50.0512 49.3657 51.24 48.9117 51.5123C48.7778 51.5927 48.4734 51.8013 48.2354 51.9761C47.4234 52.572 46.1171 53.2963 45.1352 53.6954C44.8928 53.7939 44.5266 53.9603 44.3215 54.0653C43.3987 54.5374 40.4117 55.3707 38.6741 55.6407C36.7561 55.9386 32.7976 55.8246 31.2401 55.4265C30.9394 55.3497 30.456 55.2418 30.1656 55.1866C29.1479 54.9933 27.4478 54.4632 26.5906 54.0716C26.4414 54.0036 26.1287 53.8675 25.8958 53.7694C25.1293 53.4469 23.9957 52.8525 23.3021 52.4093C22.3962 51.8306 21.7953 51.4261 21.4876 51.1879C20.2202 50.207 18.8183 48.9082 18.2483 48.1871C18.105 48.0058 17.8943 47.7659 17.7801 47.6539C17.6658 47.5419 17.4516 47.2823 17.3043 47.077C17.1568 46.8717 16.9071 46.5576 16.7495 46.3789C16.4598 46.0509 16.1633 45.5735 16.0758 45.2945C16.0495 45.211 15.8875 44.9283 15.7154 44.6662C15.5436 44.4042 15.2249 43.8391 15.0074 43.4105C14.7897 42.9821 14.4953 42.4481 14.3529 42.2241C14.2105 42.0001 14.0283 41.6031 13.9479 41.3418C13.8676 41.0805 13.7306 40.6834 13.6435 40.4594C13.2204 39.3719 12.7849 37.678 12.6227 36.4889C12.5641 36.0596 12.4896 35.5337 12.4571 35.3204C12.0831 32.8684 12.5146 28.1767 13.3326 25.7977C13.4864 25.3505 13.713 24.6943 13.8362 24.3397C14.4302 22.6293 16.0801 19.7494 17.4329 18.0614C18.042 17.3016 20.2192 15.0783 20.598 14.8292C20.7331 14.7404 21.0449 14.4978 21.291 14.2901C21.5371 14.0822 21.8234 13.8696 21.927 13.8175C22.0308 13.7654 22.3749 13.5377 22.6919 13.3117C23.6786 12.6079 23.9881 12.4406 26.5228 11.2416C26.7466 11.1357 27.1554 10.983 27.4312 10.9022C27.707 10.8213 27.9993 10.7115 28.0806 10.6582C28.5403 10.3567 31.9351 9.66203 33.5406 9.54122C34.6883 9.45468 37.4639 9.51271 38.3886 9.64252ZM17.2229 61.8149L16.9412 61.8787L17.1212 62.0657C17.2204 62.1685 17.4234 62.3299 17.5726 62.4244C17.7218 62.5189 18.0188 62.7084 18.2327 62.8455C18.4464 62.9828 18.6378 63.095 18.6578 63.095C18.6778 63.095 18.8078 63.1664 18.947 63.2538C19.2394 63.4374 20.5097 64.1217 21.0835 64.4046C21.7472 64.7317 21.616 64.729 35.3374 64.709L48.3559 64.69L49.6827 64.0024C51.9277 62.8392 53.2361 61.9696 52.9512 61.8302C52.7839 61.7484 17.5826 61.7333 17.2229 61.8149ZM25.9629 66.0191C26.198 66.4088 27.9133 66.8466 30.4555 67.1658C30.7911 67.208 31.2613 67.2873 31.5003 67.3423C32.4494 67.56 37.0669 67.5333 38.6259 67.3012C38.8683 67.2651 39.326 67.2045 39.643 67.1665C41.7912 66.9084 43.6594 66.4396 44.1403 66.0379L44.3319 65.8777H35.1047H25.8775L25.9629 66.0191Z" fill="white"/>
</svg>
