<svg width="39" height="39" viewBox="0 0 39 39" fill="none" xmlns="http://www.w3.org/2000/svg">
<g clip-path="url(#clip0_640_2)">
<path d="M23.0987 0.0937157C22.0821 0.659782 21.7935 1.55811 22.2955 2.51796C22.6092 3.10864 22.5339 3.07172 25.0313 4.21617C28.7459 5.93898 31.9084 9.16311 33.5775 12.9656C34.5438 15.1807 34.983 17.285 34.983 19.8076C34.983 22.5272 34.4183 24.7423 33.1257 27.0681C32.0841 28.9386 30.2017 31.1044 28.5451 32.335C26.989 33.4917 24.7803 34.4885 22.5841 35.0176C21.2664 35.3499 18.3675 35.4607 17.0372 35.2515C13.7367 34.7346 10.9633 33.3071 8.70437 30.9813C6.45801 28.6678 5.20306 25.9483 4.81403 22.5888C4.50029 19.8569 5.19051 17.0758 6.7592 14.7746C8.57888 12.0919 10.9758 10.3199 13.925 9.45845C15.318 9.06466 17.7777 8.91699 19.1832 9.16311C21.7935 9.61842 24.3034 11.0582 25.9097 13.0148C26.7506 14.0485 27.7294 16.0051 28.0432 17.285C29.0848 21.6043 27.1019 25.9483 23.2116 27.868C19.9738 29.4677 16.4098 29.0862 13.9375 26.8712C11.3272 24.5208 10.6621 20.8783 12.3814 18.2448C13.561 16.4112 16.0584 15.2053 17.9534 15.5498C18.9071 15.7221 20.0491 16.3497 20.7017 17.0634C21.919 18.3925 22.0445 20.4229 20.9652 21.5674C20.6013 21.9735 19.8483 22.3303 19.384 22.3303H18.9824L19.384 22.0104C19.9111 21.5674 20.137 21.0998 20.137 20.4229C20.137 18.9093 19.133 17.9864 17.5016 17.9864C16.4223 17.9987 15.7446 18.2817 15.067 19.0201C14.3265 19.8323 14.063 20.6075 14.1383 21.7889C14.2513 23.4625 15.3054 24.9146 16.9745 25.6898C17.7651 26.059 17.8906 26.0836 19.2711 26.0836C20.6891 26.0836 20.7268 26.0713 21.6806 25.616C23.5128 24.73 24.9058 23.0933 25.345 21.3213C25.6588 20.1153 25.5584 18.2694 25.1317 17.1373C24.2281 14.75 22.3331 12.9656 19.8232 12.1534C18.9573 11.8704 18.6059 11.8212 17.1878 11.8212C15.3682 11.8089 14.6654 11.9565 13.1971 12.6826C10.5491 13.9747 8.74202 16.1036 7.93885 18.8478C7.52472 20.2384 7.53727 22.9456 7.93885 24.3485C9.05576 28.1756 12.2935 31.2767 16.1964 32.2488C19.2334 32.9995 22.0319 32.6918 24.843 31.289C29.4613 29.0001 32.197 24.5823 32.1845 19.4508C32.1594 14.27 28.8965 9.20003 24.0399 6.81269C19.0703 4.37614 13.0967 4.80685 8.30279 7.94483C6.99764 8.79393 5.12776 10.5537 4.13635 11.8581C0.986426 15.9559 0.0954117 21.7274 1.80214 26.8589C2.66806 29.4308 3.99831 31.572 6.08153 33.6886C8.61653 36.2728 11.39 37.848 14.8034 38.6356C20.1244 39.8661 25.2572 38.9309 29.9256 35.8914C32.8873 33.9717 35.0081 31.7074 36.4764 28.9017C40.6805 20.9275 39.162 11.5504 32.6363 5.00374C30.5531 2.89944 27.7671 1.10279 25.0564 0.106022C24.0901 -0.263153 23.7261 -0.263153 23.0987 0.0937157Z" fill="black"/>
</g>
<defs>
<clipPath id="clip0_640_2">
<rect width="39" height="39" fill="white"/>
</clipPath>
</defs>
</svg>
