<svg width="37" height="37" viewBox="0 0 37 37" fill="none" xmlns="http://www.w3.org/2000/svg">
<path fill-rule="evenodd" clip-rule="evenodd" d="M8.95698 0.0390381C8.94789 0.0661281 8.37315 0.087188 7.09974 0.107078C5.54373 0.131378 5.2425 0.144428 5.17194 0.190688C4.90032 0.368708 4.464 0.961718 4.464 1.15297C4.464 1.18915 4.44051 1.24225 4.4118 1.27096C4.38309 1.29967 4.34853 1.36969 4.33503 1.42657C4.32144 1.48336 4.27482 1.61089 4.23126 1.70989C4.14441 1.90726 4.05333 2.12569 3.90852 2.48389C3.8565 2.61259 3.79008 2.76379 3.76092 2.81977C3.73185 2.87584 3.708 2.94226 3.708 2.96746C3.708 2.99257 3.6675 3.08932 3.618 3.18247C3.5685 3.27553 3.52791 3.37921 3.52782 3.41278C3.52773 3.44644 3.48768 3.53869 3.4389 3.61789C3.39012 3.69709 3.34971 3.79033 3.34908 3.82498C3.34854 3.85972 3.3156 3.94864 3.276 4.02253C3.2364 4.09633 3.204 4.17697 3.204 4.20154C3.204 4.2262 3.16422 4.33168 3.11562 4.43608C3.06702 4.54048 2.98539 4.73929 2.93427 4.87789C2.88306 5.01649 2.81754 5.17291 2.78856 5.22547C2.75967 5.27803 2.736 5.34292 2.736 5.36974C2.736 5.39656 2.6955 5.49457 2.646 5.58754C2.5965 5.68051 2.556 5.78617 2.556 5.82226C2.556 5.85835 2.53404 5.91982 2.50713 5.95888C2.48022 5.99794 2.43792 6.09469 2.41308 6.17389C2.38833 6.25309 2.34828 6.35029 2.32425 6.38989C2.30022 6.42949 2.25927 6.53929 2.23335 6.63379C2.20734 6.72838 2.17323 6.8137 2.15739 6.82351C2.14164 6.83323 2.10312 6.92917 2.07189 7.03672C2.04066 7.14427 1.99908 7.2421 1.97955 7.25416C1.96002 7.26622 1.944 7.30519 1.944 7.34065C1.944 7.37611 1.9035 7.48132 1.854 7.57447C1.8045 7.66753 1.764 7.77139 1.764 7.80532C1.764 7.83925 1.73385 7.9234 1.69704 7.99243C1.66023 8.06146 1.6182 8.15839 1.6038 8.20789C1.56159 8.35216 1.40508 8.75968 1.36323 8.83411C1.32579 8.90071 1.23588 9.14551 1.13202 9.46393C1.10358 9.55087 1.06578 9.63997 1.04787 9.66193C1.03005 9.68389 0.99441 9.77479 0.96876 9.86389C0.94311 9.95299 0.90288 10.0583 0.8793 10.0979C0.85581 10.1375 0.82539 10.2185 0.8118 10.2779C0.79812 10.3373 0.75798 10.4507 0.72252 10.5299C0.65286 10.6853 0.59787 10.8332 0.51498 11.0879C0.486 11.177 0.43227 11.3228 0.39555 11.4119C0.35883 11.501 0.31887 11.6225 0.30672 11.6819C0.29457 11.7413 0.25362 11.8709 0.21573 11.9699C0.17775 12.0689 0.13671 12.2754 0.12429 12.4289C0.10773 12.6348 0.08856 12.7079 0.05094 12.7079C0.00945 12.7079 0 12.8014 0 13.2119C0 13.621 0.00954 13.7159 0.05067 13.7159C0.0891 13.7159 0.10674 13.8 0.12411 14.0669C0.15372 14.5215 0.31122 15.0478 0.59058 15.6257C0.81945 16.0992 1.46736 16.8266 1.944 17.1453C1.9935 17.1785 2.09988 17.2506 2.18034 17.3057C2.42622 17.4741 2.99223 17.735 3.21822 17.7842C3.29949 17.8019 3.4551 17.8418 3.564 17.8728C4.00212 17.9977 5.31288 17.9743 5.64489 17.8356C5.71302 17.8072 5.80329 17.7837 5.84541 17.7835C5.88753 17.7833 6.003 17.7434 6.102 17.6947C6.201 17.646 6.29937 17.6056 6.32061 17.6051C6.34185 17.6044 6.45174 17.5512 6.56487 17.4869C6.678 17.4225 6.81642 17.3447 6.87249 17.3138C7.26327 17.0988 7.93026 16.4537 8.23437 15.9966C8.25876 15.9599 8.31618 15.8732 8.36208 15.8039C8.40789 15.7346 8.49852 15.5645 8.56341 15.4259C8.6283 15.2873 8.70255 15.1334 8.72856 15.0839C8.75448 15.0344 8.7867 14.9372 8.8002 14.8679C8.92764 14.2132 9.14184 13.9648 9.14382 14.4694C9.14436 14.6054 9.38574 15.2777 9.50661 15.4799C9.52443 15.5096 9.56106 15.5825 9.58815 15.6419C9.75762 16.014 10.4444 16.8104 10.8145 17.0639C10.8868 17.1134 10.9819 17.1839 11.0259 17.2207C11.07 17.2575 11.1384 17.302 11.178 17.3198C11.2176 17.3376 11.3526 17.4088 11.4781 17.478C11.6034 17.5473 11.7252 17.6039 11.7486 17.6039C11.7719 17.6039 11.8494 17.6351 11.9207 17.6734C11.992 17.7115 12.1132 17.7545 12.1901 17.7689C12.2671 17.7834 12.379 17.8157 12.439 17.8407C12.8035 17.9928 14.2754 17.9924 14.5781 17.8401C14.6287 17.8147 14.7395 17.7833 14.8243 17.7703C14.9092 17.7572 15.0385 17.7145 15.1118 17.6753C15.185 17.636 15.2641 17.6039 15.2874 17.6039C15.3248 17.6039 15.4148 17.5579 15.894 17.2937C15.9534 17.2609 16.015 17.212 16.0308 17.185C16.0466 17.158 16.0768 17.1359 16.0979 17.1359C16.2131 17.1359 16.9776 16.3763 17.154 16.0864C17.1738 16.0539 17.2387 15.9567 17.2983 15.8706C17.462 15.6338 17.784 14.9586 17.784 14.8523C17.784 14.8167 17.8075 14.7125 17.8362 14.6207C17.8649 14.5289 17.908 14.385 17.932 14.3009C17.987 14.1076 18.023 14.1076 18.0719 14.3009C18.0931 14.385 18.1334 14.5187 18.1613 14.5979C18.1893 14.6771 18.2233 14.8067 18.2371 14.8859C18.2614 15.0267 18.2815 15.0745 18.4864 15.4799C18.5924 15.6895 18.8491 16.0931 18.9598 16.2242C18.9962 16.2672 19.0665 16.3535 19.116 16.416C19.1936 16.5139 19.3238 16.6484 19.5502 16.8645C19.8995 17.198 20.9748 17.7839 21.2373 17.7839C21.2803 17.7839 21.3607 17.8072 21.4159 17.8357C21.6811 17.9729 22.9981 17.9964 23.4396 17.8717C23.5465 17.8416 23.6988 17.8013 23.778 17.7821C24.0581 17.7144 24.8007 17.366 25.0018 17.2079C25.0648 17.1584 25.162 17.0855 25.218 17.0459C25.2739 17.0063 25.3656 16.9334 25.4218 16.8839C25.4781 16.8344 25.5443 16.7761 25.5691 16.7543C25.8781 16.4817 26.3538 15.811 26.5496 15.3719C26.5805 15.3026 26.6245 15.2135 26.6475 15.1739C26.6998 15.0834 26.812 14.7015 26.8697 14.4179C26.8983 14.2772 26.9313 14.2019 26.9643 14.2019C27.0237 14.2019 27.1667 14.5879 27.202 14.8432C27.2151 14.9386 27.2459 15.0365 27.2702 15.0609C27.2946 15.0853 27.3259 15.145 27.3398 15.1936C27.383 15.3443 27.5789 15.7319 27.6118 15.7319C27.629 15.7319 27.6547 15.7683 27.6686 15.8129C27.6826 15.8574 27.7247 15.9344 27.7619 15.9839C28.3522 16.7672 28.8235 17.1773 29.52 17.5138C29.6685 17.5856 29.8222 17.662 29.8615 17.6837C29.9298 17.7213 30.2742 17.821 30.582 17.8922C31.0308 17.9959 32.3095 17.9607 32.6071 17.8364C32.6762 17.8076 32.7649 17.7839 32.8042 17.7839C32.8434 17.7839 32.9562 17.7434 33.0547 17.6939C33.1533 17.6444 33.264 17.6039 33.3008 17.6039C33.3376 17.6039 33.3788 17.586 33.3923 17.5641C33.4058 17.5422 33.4756 17.4977 33.5474 17.4651C34.1005 17.2138 34.8816 16.5084 35.1932 15.979C35.2147 15.9424 35.2591 15.8829 35.2918 15.8468C35.3244 15.8107 35.3691 15.7296 35.3911 15.6665C35.413 15.6035 35.4457 15.5519 35.4635 15.5519C35.4814 15.5519 35.496 15.5337 35.496 15.5114C35.496 15.4892 35.5348 15.3798 35.5822 15.2684C35.7464 14.883 35.8306 14.5601 35.8741 14.1496C35.8996 13.9088 35.9348 13.7316 35.9589 13.7236C36.0138 13.7053 36.0166 12.7194 35.9619 12.7012C35.941 12.6942 35.9075 12.5673 35.8875 12.4192C35.8506 12.1457 35.7106 11.6263 35.6208 11.4299C35.5936 11.3705 35.5529 11.2494 35.5302 11.161C35.5075 11.0724 35.4662 10.9676 35.4385 10.928C35.4107 10.8883 35.3878 10.823 35.3876 10.7829C35.3875 10.7427 35.3475 10.6289 35.2988 10.5299C35.2501 10.4309 35.2094 10.3094 35.2084 10.2599C35.2073 10.2104 35.1747 10.1294 35.136 10.0799C35.0973 10.0304 35.0653 9.9574 35.0648 9.91762C35.0644 9.87784 35.0235 9.76921 34.974 9.67624C34.9245 9.58327 34.884 9.47788 34.884 9.44197C34.884 9.40615 34.8516 9.31633 34.812 9.24253C34.7724 9.16864 34.7398 9.08782 34.7396 9.06298C34.7395 9.03823 34.6995 8.93689 34.6508 8.83789C34.6021 8.73889 34.5617 8.63332 34.5612 8.60335C34.5605 8.57338 34.5276 8.48833 34.488 8.41453C34.4484 8.34064 34.4159 8.25172 34.4159 8.21698C34.4158 8.18233 34.3853 8.10394 34.348 8.04292C34.3108 7.98181 34.2685 7.87786 34.254 7.81189C34.2395 7.74592 34.1972 7.64197 34.1599 7.58086C34.1227 7.51984 34.0922 7.44532 34.0921 7.41535C34.0921 7.38538 34.0596 7.30033 34.02 7.22653C33.9804 7.15264 33.948 7.06705 33.948 7.03636C33.948 7.00567 33.9075 6.90451 33.858 6.81154C33.8085 6.71857 33.7679 6.61804 33.7679 6.58816C33.7678 6.55828 33.7354 6.48088 33.6959 6.41599C33.6563 6.35119 33.624 6.2701 33.624 6.23572C33.624 6.20143 33.5835 6.09721 33.534 6.00424C33.4845 5.91127 33.4439 5.80606 33.4437 5.77051C33.4436 5.73496 33.4113 5.65729 33.372 5.59789C33.3327 5.53849 33.3004 5.46496 33.3003 5.43454C33.3001 5.40403 33.268 5.31646 33.2291 5.23996C33.19 5.16337 33.1321 5.02243 33.1003 4.92676C33.0685 4.83109 33.0276 4.74352 33.0092 4.73218C32.9909 4.72093 32.976 4.68214 32.976 4.64614C32.976 4.58503 32.8863 4.36075 32.7215 4.00993C32.6832 3.92857 32.652 3.8392 32.652 3.81139C32.652 3.78358 32.6196 3.70033 32.58 3.62653C32.5404 3.55264 32.508 3.4702 32.508 3.44338C32.508 3.41656 32.4675 3.31846 32.418 3.22531C32.3685 3.13225 32.328 3.03181 32.328 3.00211C32.328 2.97241 32.2971 2.88826 32.2594 2.815C32.2218 2.74183 32.1468 2.57659 32.0929 2.44789C32.039 2.31919 31.9662 2.14909 31.9312 2.06989C31.8961 1.99069 31.8554 1.88539 31.8406 1.83589C31.826 1.78639 31.7838 1.68946 31.747 1.62043C31.7101 1.5514 31.6799 1.4704 31.6797 1.44043C31.6796 1.41046 31.6473 1.33729 31.608 1.27789C31.5687 1.21849 31.5364 1.14064 31.5363 1.105C31.5361 1.06927 31.4955 0.980438 31.446 0.907628C31.3965 0.834818 31.356 0.756068 31.356 0.732668C31.356 0.668138 30.8957 0.217148 30.7862 0.174488C30.7285 0.151988 30.0276 0.125708 29.0354 0.108878C27.866 0.088988 27.377 0.068918 27.3675 0.0402981C27.3486 -0.0164919 8.97588 -0.0177519 8.95698 0.0390381ZM8.85357 18.6898C8.76708 18.7525 8.6796 18.818 8.65917 18.8355C8.53542 18.9414 8.21214 19.167 8.136 19.2007C8.0865 19.2225 8.0379 19.2507 8.028 19.2633C8.0181 19.2759 7.9452 19.321 7.866 19.3634C7.7868 19.4059 7.6977 19.4552 7.668 19.473C7.6383 19.4907 7.5168 19.5495 7.398 19.6035C7.2792 19.6575 7.1253 19.7296 7.056 19.7638C6.9867 19.7979 6.86691 19.8374 6.78978 19.8515C6.71256 19.8656 6.61536 19.8985 6.57378 19.9246C6.53211 19.9507 6.39495 19.9895 6.26904 20.0109C6.14304 20.0323 6.01902 20.0671 5.99337 20.0884C5.96772 20.1097 5.75487 20.1438 5.52042 20.1642C5.28588 20.1845 4.9725 20.2122 4.824 20.2256C4.6755 20.2389 4.4325 20.2393 4.284 20.2262C4.1355 20.2132 3.81618 20.1848 3.57444 20.1633C3.33261 20.1417 3.08151 20.1015 3.01644 20.0739C2.82771 19.994 2.47887 19.9393 2.42784 19.9817C2.33658 20.0575 2.32992 20.3843 2.30823 25.8402C2.28924 30.619 2.27853 31.4351 2.23479 31.4622C2.20662 31.4795 2.06964 31.5053 1.9305 31.5192C1.7001 31.5424 1.54926 31.5935 1.296 31.7343C1.2465 31.7619 1.14768 31.8167 1.0764 31.8561C0.7992 32.0096 0.43443 32.4316 0.24858 32.8139L0.126 33.0659L0.12771 33.7139L0.12933 34.3619L0.26073 34.6319C0.4635 35.0487 0.9954 35.6135 1.26 35.6931C1.3095 35.708 1.38771 35.7547 1.43388 35.797L1.51776 35.8739L5.39127 35.893C8.39151 35.9078 9.26802 35.922 9.27936 35.956C9.29781 36.0113 10.08 36.0191 10.08 35.9639C10.08 35.9441 10.1043 35.9279 10.134 35.9279C10.1637 35.9279 10.188 35.9441 10.188 35.9639C10.188 35.9876 11.5006 35.9999 14.0538 35.9999H17.9196L17.9413 35.9189C17.9533 35.8743 17.9635 33.6914 17.9639 31.0679C17.9648 26.4539 18.0001 23.8888 18.0714 23.2621C18.1277 22.7658 18.2905 22.606 18.8186 22.5283C19.2964 22.458 25.4762 22.4621 26.0981 22.533L26.5462 22.5842L26.6989 22.7369C27.0089 23.0469 27.0046 22.9506 27.0228 29.9159C27.0312 33.173 27.0461 35.8743 27.0558 35.9189L27.0733 35.9999H28.8547C30.0182 35.9999 30.636 35.9874 30.636 35.9639C30.636 35.912 30.7345 35.9194 30.7562 35.9729C30.7702 36.0072 30.7831 36.0056 30.8106 35.966C30.8408 35.9226 31.1387 35.911 32.6583 35.894L34.47 35.8739L34.6134 35.7749C34.6922 35.7204 34.7701 35.6759 34.7863 35.6759C34.9474 35.6759 35.5784 34.9957 35.7548 34.6319C35.9504 34.2289 35.9405 33.138 35.7379 32.7539C35.5141 32.3299 35.1307 31.9419 34.7529 31.7573C34.6171 31.691 34.4653 31.6154 34.4155 31.5893C34.3658 31.5632 34.2073 31.5303 34.0633 31.5161C33.8654 31.4966 33.7929 31.4745 33.7667 31.4255C33.745 31.385 33.7312 29.8263 33.7297 27.2812C33.7265 21.3472 33.6931 19.9439 33.5552 19.9439C33.4703 19.9439 32.9562 20.0595 32.9247 20.0856C32.903 20.1036 32.7154 20.137 32.5076 20.1599C32.2999 20.1827 32.0508 20.2163 31.9541 20.2346C31.7205 20.2788 31.2685 20.2769 31.0279 20.2306C30.9213 20.2102 30.6756 20.1781 30.482 20.1594C30.2885 20.1407 30.0987 20.1086 30.0604 20.0881C30.0221 20.0675 29.8807 20.0279 29.7463 19.9999C29.4843 19.9452 29.1263 19.8285 28.98 19.75C28.9305 19.7234 28.8414 19.6901 28.782 19.676C28.7226 19.6618 28.6497 19.6292 28.62 19.6033C28.5903 19.5775 28.5255 19.5442 28.476 19.5292C28.4265 19.5142 28.3474 19.4718 28.3001 19.4349C28.2529 19.398 28.1971 19.3679 28.1761 19.3679C28.1551 19.3679 28.0803 19.3301 28.01 19.2838C27.9396 19.2376 27.7605 19.1204 27.612 19.0234C27.4635 18.9264 27.3339 18.8387 27.324 18.8285C27.0757 18.5719 26.9848 18.5523 26.789 18.7129C26.6182 18.8528 26.2968 19.0771 26.0824 19.2059C25.7459 19.4078 25.5579 19.5119 25.5294 19.5119C25.5119 19.5119 25.4578 19.5433 25.409 19.5816C25.3602 19.6201 25.273 19.6629 25.2151 19.677C25.1573 19.6911 25.0776 19.7249 25.038 19.7522C24.9984 19.7794 24.9012 19.8184 24.822 19.8389C24.7428 19.8594 24.6251 19.9003 24.5604 19.93C24.4957 19.9596 24.3522 19.9986 24.2416 20.0166C24.131 20.0346 24.0214 20.0652 23.998 20.0846C23.9746 20.104 23.7778 20.1378 23.5607 20.1599C23.3437 20.1818 23.1012 20.2148 23.022 20.233C22.8271 20.2779 22.2304 20.2764 21.9919 20.2306C21.8853 20.2101 21.6288 20.1771 21.422 20.1572C21.2153 20.1374 21.0282 20.1063 21.0064 20.0882C20.9848 20.0702 20.8624 20.032 20.7345 20.0032C20.4661 19.9429 20.2036 19.856 19.998 19.7594C19.9188 19.7221 19.8378 19.6916 19.818 19.6915C19.7982 19.6915 19.7415 19.6697 19.692 19.6433C19.2481 19.4056 19.0903 19.3166 19.044 19.2777C19.0143 19.2528 18.9557 19.222 18.9138 19.2092C18.8718 19.1964 18.8086 19.154 18.7732 19.115C18.7378 19.0758 18.695 19.0439 18.6782 19.0439C18.6612 19.0439 18.5018 18.9386 18.324 18.8099C17.9623 18.5482 17.9862 18.5593 17.9216 18.6221C17.88 18.6624 17.4425 18.9808 17.2561 19.1063C16.9485 19.3134 16.8603 19.3666 16.8236 19.3673C16.8002 19.3676 16.7597 19.389 16.7336 19.4149C16.7074 19.4407 16.5726 19.5143 16.434 19.5785C16.2954 19.6426 16.1221 19.7268 16.0489 19.7655C15.9756 19.8042 15.8865 19.8362 15.8509 19.8367C15.8152 19.8371 15.7156 19.8694 15.6296 19.9084C15.5435 19.9475 15.3759 19.9951 15.257 20.0143C15.1381 20.0333 15.0203 20.0661 14.9952 20.0869C14.9701 20.1078 14.7741 20.1414 14.5597 20.1618C14.3454 20.182 14.1043 20.2139 14.024 20.2324C13.833 20.2765 13.2705 20.2772 13.0403 20.2334C12.9404 20.2145 12.6836 20.1812 12.4696 20.1594C12.2556 20.1377 12.0613 20.1039 12.0379 20.0845C12.0144 20.0649 11.8923 20.0325 11.7666 20.0125C11.6409 19.9923 11.5053 19.9546 11.4655 19.9286C11.4256 19.9026 11.3365 19.8695 11.2675 19.8551C11.1578 19.8324 10.8751 19.717 10.683 19.6167C10.6483 19.5986 10.5917 19.5705 10.557 19.5541C10.3708 19.4658 10.1555 19.3508 10.044 19.2799C9.61461 19.0066 9.35793 18.831 9.21366 18.7118C9.01638 18.5486 9.04599 18.5504 8.85357 18.6898ZM12.816 22.5351C12.9538 22.5628 13.0824 22.6134 13.1288 22.658C13.4273 22.9451 13.4113 22.9145 13.4757 23.321C13.5611 23.8595 13.562 25.6137 13.4771 26.1581C13.3499 26.9755 13.2753 26.9949 10.206 27.0086C7.47666 27.0208 6.99525 26.9473 6.88914 26.5025C6.87645 26.4494 6.8481 26.3832 6.82605 26.3554C6.75027 26.2598 6.75162 23.5082 6.82758 23.1839C6.94215 22.695 7.18065 22.5404 7.902 22.4873C8.41113 22.4498 12.5945 22.4905 12.816 22.5351Z" fill="white"/>
</svg>
