<svg width="36" height="33" viewBox="0 0 36 33" fill="none" xmlns="http://www.w3.org/2000/svg">
<g clip-path="url(#clip0_631_2)">
<path d="M18.3143 18.8571C16.3623 18.8573 14.4541 18.3053 12.831 17.2708C11.2079 16.2366 9.94285 14.7663 9.19576 13.0461C8.44868 11.3259 8.25316 9.43305 8.63392 7.60679C9.01468 5.78061 9.95462 4.10313 11.3349 2.78651C12.2498 1.90606 13.3381 1.20666 14.5372 0.728475C15.7363 0.250292 17.0226 0.00273728 18.3223 2.25723e-05C19.622 -0.00269214 20.9094 0.239487 22.1107 0.712658C23.312 1.18582 24.4034 1.88067 25.3225 2.75729C26.2415 3.63392 26.9699 4.67505 27.466 5.82094C27.9619 6.96684 28.2158 8.19483 28.2131 9.43458C28.2103 10.6743 27.9507 11.9013 27.4493 13.0451C26.948 14.1889 26.2148 15.227 25.2918 16.0998C24.3777 16.9766 23.2903 17.6718 22.0926 18.145C20.8949 18.6183 19.6107 18.8605 18.3143 18.8571ZM20.9395 6.61421L21.0194 6.90797L22.6375 12.5027H23.9541L21.7453 5.24733L21.6916 5.05009H20.5433L20.5166 5.08964L19.4424 6.90937L18.341 8.7757L18.3143 8.82036L18.302 8.7757L18.1663 8.29602L17.7903 6.90937L17.7498 6.77142L17.3334 5.24685L17.2795 5.04963H16.1333L16.1066 5.08916L15.0329 6.90937L13.9315 8.7757L12.837 10.6354L11.7356 12.5027H13.0511L14.1525 10.6364L15.2539 8.77712L16.3484 6.9108L16.5295 6.61515L16.6099 6.9108L16.9455 8.13975L17.3624 9.67047L17.5075 10.1925L17.246 10.6364L16.1431 12.5027H17.4587L17.9235 11.7152L18.7313 10.3478L19.6614 8.77712L20.756 6.9108L20.9365 6.61656L20.9395 6.61421Z" fill="#245EC6"/>
<path d="M0.0097338 29.2095L1.56303 21.1793C1.57622 21.1306 1.60502 21.0871 1.64563 21.0549C1.68606 21.0227 1.73621 21.0035 1.78879 21H1.98975C2.03417 21.0022 2.07738 21.0155 2.11469 21.0385C2.15217 21.0616 2.18254 21.0936 2.20284 21.1314L4.82129 27.2378H4.87144L7.47617 21.1314C7.49526 21.0926 7.52528 21.0597 7.56293 21.0364C7.60059 21.0132 7.64449 21.0006 7.68927 21H7.89039C7.94297 21.0035 7.99295 21.0227 8.03356 21.0549C8.07399 21.0871 8.10279 21.1306 8.11598 21.1793L9.65696 29.21C9.66997 29.2428 9.67396 29.2783 9.66841 29.313C9.66286 29.3477 9.64811 29.3805 9.62537 29.4081C9.60264 29.4357 9.57279 29.4573 9.53895 29.4707C9.50477 29.4841 9.46781 29.489 9.43119 29.4846H8.61558C8.56266 29.4831 8.51164 29.4663 8.46912 29.4364C8.42661 29.4066 8.3945 29.365 8.37732 29.3174L7.4517 23.9755H7.41387L5.15898 29.4727C5.14284 29.5135 5.11352 29.5482 5.07516 29.5719C5.03681 29.5955 4.99135 29.6068 4.94588 29.604H4.72029C4.675 29.6051 4.6304 29.5931 4.5924 29.5697C4.55439 29.5463 4.52472 29.5125 4.50702 29.4727L2.23946 23.9755H2.18931L1.28763 29.3174C1.2734 29.3644 1.24373 29.4058 1.2033 29.4359C1.16269 29.4659 1.1134 29.483 1.06204 29.4846H0.24782C0.211031 29.4883 0.173896 29.4832 0.139537 29.4699C0.105351 29.4565 0.0749818 29.4352 0.0515548 29.408C0.0279543 29.3808 0.0116416 29.3483 0.00435326 29.3138C-0.00293513 29.2791 -0.00102525 29.2433 0.0097338 29.2095ZM12.0406 29.3169L9.86086 25.0149C9.84195 24.9814 9.83275 24.9437 9.83448 24.9057C9.83604 24.8676 9.84854 24.8308 9.8704 24.7989C9.89227 24.7671 9.92264 24.7414 9.95856 24.7248C9.99431 24.7081 10.0342 24.701 10.074 24.7042H10.9007C10.9447 24.708 10.9871 24.7219 11.0242 24.7448C11.0614 24.7677 11.0923 24.7988 11.1138 24.8356L12.6672 28.0144H12.6797L14.183 24.8356C14.2065 24.7899 14.2447 24.7526 14.292 24.7289C14.3392 24.7053 14.393 24.6966 14.4458 24.7042H15.16C15.2005 24.6986 15.2418 24.7041 15.2791 24.7202C15.3162 24.7362 15.348 24.762 15.3704 24.7947C15.3927 24.8273 15.4049 24.8654 15.4054 24.9044C15.4059 24.9434 15.3947 24.9817 15.3731 25.0149L11.5394 32.9247C11.5212 32.965 11.4916 32.9998 11.4541 33.0251C11.4166 33.0505 11.3723 33.0654 11.3263 33.0686H10.5756C10.5343 33.0722 10.4929 33.0649 10.4557 33.0474C10.4186 33.03 10.3874 33.0031 10.3651 32.9697C10.3431 32.9362 10.3311 32.8975 10.3308 32.8582C10.3303 32.8186 10.3412 32.7798 10.3625 32.7458L12.0406 29.3169ZM14.9735 29.4842C14.9338 29.4874 14.8938 29.4803 14.8581 29.4636C14.8222 29.4469 14.7916 29.4214 14.7699 29.3895C14.7481 29.3577 14.7356 29.3208 14.734 29.2828C14.7323 29.2448 14.7415 29.207 14.7604 29.1736L18.6071 21.1314C18.63 21.0956 18.6611 21.0653 18.6979 21.0425C18.7348 21.0198 18.7766 21.0053 18.8202 21H18.9453C18.9889 21.0053 19.0307 21.0198 19.0675 21.0425C19.1044 21.0653 19.1355 21.0956 19.1584 21.1314L22.9779 29.174C22.9968 29.2075 23.006 29.2452 23.0044 29.2832C23.0027 29.3212 22.9904 29.3581 22.9685 29.39C22.9466 29.4218 22.9161 29.4474 22.8804 29.4641C22.8444 29.4808 22.8045 29.4879 22.7648 29.4846H21.9757C21.9141 29.4877 21.8529 29.472 21.8012 29.4397C21.7494 29.4075 21.7097 29.3605 21.6878 29.3054L20.9118 27.6683H16.8154C16.5641 28.2181 16.3019 28.7555 16.0511 29.3054C16.0265 29.3587 15.9861 29.404 15.9349 29.4358C15.8838 29.4676 15.8241 29.4846 15.7631 29.4846L14.9735 29.4842ZM17.3039 26.64H20.4368L18.895 23.3682H18.8322L17.3039 26.64ZM23.4855 29.2569V21.3466C23.4875 21.2869 23.5132 21.2303 23.5575 21.188C23.6017 21.1458 23.6612 21.1213 23.7237 21.1194H24.4378C24.5005 21.1213 24.5598 21.1458 24.6041 21.188C24.6483 21.2303 24.674 21.2869 24.6761 21.3466V29.2565C24.674 29.3161 24.6483 29.3728 24.6041 29.4151C24.5598 29.4572 24.5005 29.4818 24.4378 29.4837H23.7227C23.6604 29.4818 23.601 29.4574 23.5568 29.4153C23.5125 29.3734 23.4867 29.3169 23.4844 29.2574L23.4855 29.2569ZM25.5068 29.197C25.521 28.9164 25.6102 28.6439 25.7659 28.4055C25.9215 28.167 26.1386 27.9705 26.3963 27.8346C26.1383 27.4987 26.002 27.0918 26.0078 26.6755C26.0017 26.4023 26.0531 26.1306 26.1587 25.8766C26.2644 25.6226 26.4223 25.3913 26.6231 25.1965C26.8239 25.0016 27.0637 24.847 27.3282 24.7419C27.5926 24.6368 27.8764 24.5832 28.1629 24.5844H30.3551C30.3865 24.5833 30.4181 24.5884 30.4474 24.5995C30.4769 24.6105 30.5037 24.6272 30.526 24.6486C30.5483 24.6699 30.5658 24.6953 30.5774 24.7234C30.589 24.7514 30.5944 24.7815 30.5932 24.8116V25.1103C30.5932 25.1936 30.543 25.302 30.4556 25.3135L29.7665 25.4928C29.9504 25.6544 30.0939 25.853 30.187 26.0743C30.28 26.2956 30.3199 26.5339 30.3037 26.7718C30.3032 27.0346 30.2472 27.2946 30.1389 27.5362C30.0304 27.7778 29.8722 27.996 29.6733 28.1779C29.4744 28.3598 29.2391 28.5015 28.9814 28.5945C28.7239 28.6876 28.4492 28.7301 28.174 28.7196C27.8024 28.7084 27.4349 28.6438 27.0838 28.5278C26.945 28.5622 26.8209 28.6371 26.7288 28.7421C26.6368 28.847 26.5813 28.9767 26.5702 29.1132C26.5724 29.1843 26.5903 29.2542 26.6226 29.3184C26.655 29.3826 26.701 29.4396 26.7578 29.4857C26.8147 29.5318 26.881 29.5661 26.9525 29.5864C27.0242 29.6066 27.0993 29.6123 27.1732 29.6031H28.877C29.9671 29.6031 30.8441 30.1649 30.8441 31.2042C30.8441 32.256 29.842 33.1878 28.1754 33.1878C26.409 33.1878 25.6947 32.3274 25.6947 31.5508C25.7029 31.318 25.7754 31.0913 25.9054 30.894C26.0352 30.6966 26.2176 30.5357 26.4341 30.4276V30.3917C26.1643 30.316 25.9278 30.1585 25.7603 29.9432C25.5928 29.7278 25.5035 29.4661 25.5057 29.198L25.5068 29.197ZM28.188 27.7986C28.3348 27.7989 28.4803 27.7698 28.6146 27.7133C28.7491 27.6569 28.8697 27.5743 28.9688 27.4708C29.0678 27.3673 29.1432 27.2453 29.1898 27.1125C29.2367 26.9796 29.2539 26.8389 29.2403 26.6994C29.2539 26.5599 29.2367 26.4192 29.1898 26.2864C29.1432 26.1535 29.0678 26.0315 28.9688 25.928C28.8697 25.8246 28.7491 25.742 28.6146 25.6855C28.4803 25.6291 28.3348 25.6 28.188 25.6002C28.0383 25.5978 27.8896 25.625 27.7514 25.68C27.6131 25.735 27.4883 25.8168 27.3848 25.9199C27.2813 26.0232 27.2012 26.1457 27.1496 26.2798C27.0982 26.414 27.0762 26.5568 27.0854 26.6994C27.076 26.842 27.0979 26.9849 27.1493 27.1191C27.2008 27.2533 27.2806 27.3759 27.3841 27.4792C27.4875 27.5825 27.6123 27.6643 27.7504 27.7194C27.8887 27.7746 28.0372 27.8019 28.187 27.7996L28.188 27.7986ZM26.8602 31.36C26.8602 31.85 27.399 32.2086 28.1629 32.2086C28.9268 32.2086 29.5912 31.838 29.5912 31.2646C29.5912 31.0729 29.4659 30.5834 28.6514 30.5834C28.288 30.5834 27.9121 30.5834 27.5487 30.6074C27.4729 30.6318 26.8588 30.8231 26.8588 31.361L26.8602 31.36ZM31.0989 27.082C31.1206 26.6091 31.2873 26.1526 31.5785 25.7694C31.8699 25.3861 32.2727 25.0929 32.7372 24.9262C33.2018 24.7595 33.7073 24.7265 34.1911 24.8315C34.675 24.9365 35.116 25.1748 35.4591 25.5167C35.8023 25.8587 36.0326 26.2892 36.1214 26.755C36.2101 27.2207 36.1535 27.7011 35.9587 28.1364C35.7638 28.5717 35.4391 28.9429 35.0251 29.2037C34.6108 29.4646 34.1255 29.6036 33.6293 29.6036C32.9434 29.5886 32.2916 29.3148 31.817 28.8422C31.3423 28.3696 31.0836 27.7368 31.0973 27.0825L31.0989 27.082ZM32.214 27.082C32.1942 27.2706 32.2163 27.4612 32.2784 27.6412C32.3405 27.8213 32.4415 27.987 32.5749 28.1275C32.7084 28.2681 32.8712 28.3804 33.0527 28.4573C33.2344 28.5342 33.431 28.5739 33.6297 28.5739C33.8286 28.5739 34.025 28.5342 34.2067 28.4573C34.3884 28.3804 34.5511 28.2681 34.6846 28.1275C34.818 27.987 34.919 27.8213 34.9812 27.6412C35.0433 27.4612 35.0652 27.2706 35.0455 27.082C35.0601 26.8961 35.0344 26.7093 34.9701 26.5333C34.9055 26.3573 34.8036 26.1959 34.6707 26.0592C34.5378 25.9225 34.3767 25.8135 34.1977 25.7389C34.0186 25.6644 33.8253 25.6259 33.6297 25.6259C33.4343 25.6259 33.241 25.6644 33.0619 25.7389C32.8828 25.8135 32.7218 25.9225 32.5888 26.0592C32.4559 26.1959 32.354 26.3573 32.2895 26.5333C32.2251 26.7093 32.1994 26.8961 32.214 27.082Z" fill="#245EC6"/>
</g>
<defs>
<clipPath id="clip0_631_2">
<rect width="36" height="33" fill="white"/>
</clipPath>
</defs>
</svg>
