<svg width="26" height="34" viewBox="0 0 26 34" fill="none" xmlns="http://www.w3.org/2000/svg">
<path fill-rule="evenodd" clip-rule="evenodd" d="M11.6778 2.85034C11.2778 3.02024 11.2293 4.3104 11.5759 5.56569C12.155 7.66315 13.201 8.10505 13.1955 6.24989C13.1906 4.58215 12.2996 2.58629 11.6778 2.85034ZM16.3149 5.58654C14.4582 5.80499 13.5603 8.20624 14.8271 9.56519C16.1771 11.0133 18.616 9.85364 18.616 7.76354C18.616 6.43375 17.565 5.4395 16.3149 5.58654ZM6.69733 6.58429C5.63784 6.7121 5.7647 7.36854 6.95224 7.9034C8.44129 8.57405 10.4684 8.61169 10.4673 7.96864C10.4662 7.2688 8.13112 6.4114 6.69733 6.58429ZM9.51478 10.2252C8.20107 10.6909 6.27707 13.1184 6.67783 13.8044C6.99869 14.3536 8.62054 13.2494 9.59802 11.8163C10.3531 10.7092 10.313 9.9421 9.51478 10.2252ZM14.853 11.4272C13.7055 11.5268 13.6334 12.3582 14.7081 13.0995C15.885 13.9114 17.7427 14.0863 18.1187 13.4207C18.5877 12.5902 16.4548 11.2882 14.853 11.4272ZM11.4902 12.1932C11.0287 12.4647 11.104 14.2341 11.6378 15.6588C12.1556 17.0412 12.8108 17.4579 13.0266 16.542C13.3828 15.0304 12.2272 11.7594 11.4902 12.1932Z" fill="#040404"/>
<path fill-rule="evenodd" clip-rule="evenodd" d="M3 10V15C3 17.7614 5.23858 20 8 20H12.6067H17.2135C19.9749 20 22.2135 17.7614 22.2135 15V10V5C22.2135 2.23858 19.9749 0 17.2135 0H12.6067H8C5.23858 0 3 2.23858 3 5V10ZM11.9831 2.87184C12.5893 3.18716 13.2088 4.91446 13.2087 6.28905C13.2086 7.5087 12.7021 7.80825 12.134 6.92465C11.1547 5.40154 11.0423 2.38249 11.9831 2.87184ZM17.0776 5.63175C18.694 6.07095 19.1633 8.20546 17.9281 9.50011C16.6123 10.8792 14.4484 10.1632 14.238 8.27919C14.0558 6.6476 15.5814 5.22525 17.0776 5.63175ZM7.63448 6.58395C9.26115 6.76554 10.7991 7.62025 10.4229 8.1336C9.98314 8.73384 7.52031 8.40465 6.38422 7.59381C5.73619 7.13125 5.85268 6.6877 6.64945 6.58381C6.96935 6.54211 7.25997 6.54211 7.63448 6.58395ZM9.95523 10.1771C10.5953 10.4295 9.58259 12.2477 8.18803 13.3498C6.55406 14.6411 6.04365 13.7546 7.39921 11.9798C8.24302 10.8751 9.4918 9.9943 9.95523 10.1771ZM15.7214 11.4625C17.5704 11.8095 18.8634 13.1836 17.8228 13.6958C16.7125 14.2422 14.1278 13.2276 13.9392 12.1715C13.8352 11.5892 14.6562 11.2626 15.7214 11.4625ZM11.8731 12.2415C12.6761 12.8122 13.3748 15.6388 12.9815 16.7261C12.8096 17.2013 12.4238 17.1235 12.0477 16.5378C10.9996 14.9057 10.8622 11.523 11.8731 12.2415Z" fill="#FCEC54"/>
<path d="M1.35051 24.5432V24.2021H0V33.2982H1.35051V30.8474C1.35051 30.5822 1.35051 30.3673 1.32556 30.0766H1.35051C1.84112 30.9106 2.67607 31.3525 3.65848 31.3525C5.3159 31.3525 6.76416 30.0512 6.76416 27.6381C6.76416 25.2758 5.3159 24 3.65848 24C2.71315 24 1.87837 24.4297 1.35051 25.2758H1.32556C1.35051 24.9978 1.35051 24.7962 1.35051 24.5432ZM3.31432 30.1525C2.06208 30.1398 1.3377 29.0406 1.3377 27.6258C1.3377 26.2869 2.06208 25.2132 3.31432 25.2C4.54213 25.1877 5.35247 26.1729 5.35247 27.6385C5.35247 29.1419 4.54213 30.1652 3.31432 30.1525ZM13.8553 27.0449C13.8558 25.3013 12.5058 24 10.6642 24C8.69983 24 7.33702 25.3771 7.33702 27.6762C7.33702 29.8873 8.67539 31.3525 10.6642 31.3525C12.2971 31.3525 13.5126 30.3673 13.7948 29.0157H12.3216C12.0883 29.6979 11.4496 30.1525 10.6642 30.1525C9.6573 30.1525 8.92062 29.4072 8.76135 28.169H13.8558V27.0449H13.8553ZM10.6637 25.2C11.6579 25.2 12.3455 25.9076 12.4926 26.9309H8.77315C8.94472 25.9453 9.64466 25.2 10.6637 25.2ZM14.8481 31.1508H16.1985V27.2343C16.1985 25.8949 16.9107 25.2 18.0158 25.2H18.7397V24H18.163C17.1688 24 16.5548 24.6822 16.1985 25.2758H16.174V24.2021H14.8485V31.1504L14.8481 31.1508ZM25.053 29.9377C24.8687 29.9377 24.7832 29.8241 24.7832 29.5966V26.5399C24.7832 25.0742 24.0954 24.0005 22.0701 24.0005C20.1052 24.0005 19.2093 25.0111 19.111 26.4513H20.4615C20.5475 25.6683 21.1492 25.2005 22.0701 25.2005C22.8555 25.2005 23.3956 25.5543 23.3956 26.1107C23.3956 26.5653 23.0885 26.8428 22.0822 26.8428H21.5417C19.9342 26.8428 18.853 27.5128 18.853 29.0411C18.853 30.6458 19.9952 31.3784 21.3334 31.3784C22.3276 31.3784 23.1747 30.9233 23.506 29.9509C23.5431 30.6585 23.9973 31.1508 24.8565 31.1508H25.618V29.9382H25.0525L25.053 29.9377ZM23.4327 27.9165C23.4327 29.4825 22.6101 30.1652 21.5543 30.1652C20.6336 30.1652 20.265 29.6093 20.265 29.0406C20.265 28.4974 20.5846 28.0555 21.5666 28.0555H21.763C22.7078 28.0555 23.2974 27.7144 23.4204 27.1208H23.4327V27.9165Z" fill="#FCEC54"/>
</svg>
