<svg width="390" height="364" viewBox="0 0 390 364" fill="none" xmlns="http://www.w3.org/2000/svg">
<path fill-rule="evenodd" clip-rule="evenodd" d="M93.6002 1.227C92.9402 1.65 91.9072 1.997 91.3052 1.998C89.8872 2.001 84.2002 7.583 84.2002 8.972C84.2002 9.469 83.8402 10.202 83.4002 10.6C82.9602 10.998 82.6002 11.718 82.6002 12.2C82.6002 12.682 82.2502 13.393 81.8232 13.779C81.3952 14.166 80.9242 15.049 80.7762 15.741C80.6282 16.434 80.1682 17.322 79.7532 17.716C79.3392 18.109 79.0002 18.846 79.0002 19.354C79.0002 19.861 78.6502 20.593 78.2232 20.979C77.7952 21.366 77.3242 22.249 77.1762 22.941C77.0282 23.634 76.5682 24.522 76.1532 24.916C75.7392 25.309 75.4002 26.046 75.4002 26.554C75.4002 27.061 75.0582 27.786 74.6402 28.164C74.2212 28.543 73.7712 29.431 73.6382 30.139C73.5052 30.846 73.0372 31.733 72.5982 32.109C72.1592 32.485 71.8002 33.216 71.8002 33.734C71.8002 34.252 71.4402 35.002 71.0002 35.4C70.5602 35.798 70.2002 36.537 70.2002 37.041C70.2002 37.546 69.7502 38.444 69.2002 39.038C68.6502 39.631 68.2002 40.513 68.2002 40.996C68.2002 41.48 67.8402 42.202 67.4002 42.6C66.9602 42.998 66.6002 43.719 66.6002 44.202C66.6002 45.409 65.8012 47.6 65.3612 47.6C64.5702 47.6 64.9722 52.705 65.8872 54.277C67.1032 56.367 68.7832 58 69.7152 58C70.1432 58 70.9502 58.36 71.5092 58.8C72.8522 59.856 319.526 60.092 319.93 59.038C320.049 58.728 320.737 58.346 321.46 58.187C325.369 57.328 327.301 47.501 324.176 44.376C323.749 43.949 323.4 43.178 323.4 42.662C323.4 42.146 323.044 41.401 322.608 41.007C322.172 40.613 321.702 39.685 321.563 38.945C321.425 38.205 321.142 37.6 320.935 37.6C320.728 37.6 320.28 36.925 319.94 36.1C319.599 35.275 319.088 34.33 318.805 34C318.521 33.67 318.165 32.815 318.013 32.1C317.861 31.385 317.579 30.8 317.387 30.8C317.195 30.8 316.689 30.013 316.264 29.052C315.839 28.09 315.29 27.179 315.045 27.028C314.8 26.877 314.6 26.428 314.6 26.03C314.6 25.633 314.265 24.879 313.855 24.354C313.445 23.829 312.971 22.95 312.8 22.4C312.629 21.85 312.155 20.971 311.745 20.446C311.335 19.921 311 19.184 311 18.808C311 18.432 310.661 17.817 310.246 17.442C309.831 17.066 309.387 16.234 309.258 15.592C309.13 14.95 308.659 14.059 308.213 13.613C307.766 13.166 307.4 12.393 307.4 11.896C307.4 11.399 307.063 10.782 306.65 10.524C306.238 10.267 305.774 9.549 305.618 8.928C305.462 8.308 305.035 7.505 304.668 7.145C304.3 6.785 303.46 5.843 302.8 5.054C302.14 4.264 301.369 3.613 301.087 3.609C300.806 3.604 300.477 3.345 300.357 3.033C300.237 2.721 299.262 2.255 298.19 1.997C297.117 1.74 296.029 1.276 295.771 0.964998C295.057 0.104998 291.044 0.237998 288.944 1.191C287.985 1.626 286.727 1.986 286.149 1.991C285.571 1.996 284.882 2.261 284.617 2.58C284.352 2.898 283.52 3.362 282.768 3.611C282.016 3.859 281.4 4.224 281.4 4.423C281.4 4.621 280.656 5.192 279.746 5.692C276.998 7.2 276.607 7.454 275.659 8.344C275.158 8.815 274.439 9.2 274.062 9.2C273.684 9.2 273.274 9.463 273.15 9.785C273.027 10.106 272.603 10.472 272.208 10.598C271.812 10.723 271.01 11.27 270.424 11.813C269.838 12.356 269.051 12.8 268.676 12.8C268.3 12.8 267.768 13.16 267.493 13.6C267.218 14.04 266.747 14.4 266.446 14.4C266.144 14.4 265.651 14.698 265.349 15.062C265.047 15.426 264.215 15.968 263.5 16.267C262.785 16.566 262.2 16.966 262.2 17.157C262.2 17.347 261.673 17.721 261.029 17.988C260.385 18.255 259.769 18.704 259.661 18.985C259.553 19.267 258.995 19.615 258.422 19.759C257.849 19.903 257.069 20.292 256.69 20.625C254.972 22.13 253.522 23.115 252.6 23.403C252.05 23.574 251.365 24.049 251.077 24.457C250.79 24.866 250.385 25.2 250.177 25.2C249.97 25.2 249.44 25.56 249 26C248.56 26.44 247.85 26.8 247.423 26.8C246.995 26.8 246.41 27.115 246.123 27.5C245.435 28.421 242.502 30.4 241.824 30.4C241.531 30.4 240.88 30.805 240.377 31.3C238.839 32.812 237.107 34 236.44 34C236.092 34 235.582 34.36 235.307 34.8C235.032 35.24 234.607 35.6 234.362 35.6C234.117 35.6 233.431 36.05 232.838 36.6C232.244 37.15 231.402 37.6 230.967 37.6C230.531 37.6 230.08 37.846 229.965 38.147C229.783 38.62 229.026 39.154 225.346 41.401C224.987 41.62 223.708 42.475 222.505 43.3C221.302 44.125 220.154 44.8 219.955 44.8C219.756 44.8 219.368 45.16 219.093 45.6C218.818 46.04 218.37 46.4 218.097 46.401C217.823 46.401 216.61 47.116 215.4 47.989C214.19 48.862 212.66 49.85 212 50.184C211.34 50.518 209.72 51.415 208.4 52.177C207.08 52.939 205.488 53.571 204.863 53.581C204.238 53.591 203.269 53.96 202.709 54.4C201.164 55.616 188.836 55.616 187.291 54.4C186.731 53.96 185.726 53.6 185.056 53.6C183.759 53.6 181.8 52.866 181.8 52.379C181.8 52.218 181.305 51.966 180.7 51.818C179.553 51.538 176.942 49.905 175.713 48.7C175.321 48.315 174.767 48 174.481 48C173.921 48 172.651 47.13 171.128 45.704C170.602 45.211 169.741 44.7 169.215 44.568C168.689 44.436 167.948 43.984 167.567 43.564C167.187 43.144 166.635 42.8 166.341 42.8C166.047 42.8 165.582 42.44 165.307 42C165.032 41.56 164.505 41.2 164.134 41.2C163.764 41.2 162.927 40.75 162.273 40.2C161.619 39.65 160.926 39.2 160.731 39.2C160.537 39.2 160.07 38.84 159.693 38.4C159.316 37.96 158.762 37.6 158.462 37.6C158.162 37.6 157.445 37.195 156.869 36.7C154.833 34.951 153.468 34 152.994 34C152.572 34 151.314 33.133 149.388 31.515C149.051 31.232 148.106 30.688 147.288 30.306C146.469 29.925 145.8 29.43 145.8 29.206C145.8 28.983 145.528 28.8 145.196 28.8C144.864 28.8 144.284 28.44 143.907 28C143.53 27.56 143.017 27.2 142.766 27.2C142.337 27.2 140.043 25.602 138.51 24.235C138.131 23.897 137.361 23.505 136.8 23.364C136.238 23.223 135.597 22.769 135.375 22.354C135.153 21.939 134.772 21.6 134.527 21.6C134.283 21.6 133.098 20.925 131.895 20.1C130.692 19.275 129.413 18.42 129.054 18.201C125.374 15.954 124.617 15.42 124.435 14.947C124.32 14.646 123.957 14.4 123.63 14.4C122.94 14.4 120.368 12.786 119.186 11.61C118.738 11.164 118.223 10.8 118.042 10.8C117.448 10.8 113.85 8.308 113.635 7.747C113.52 7.446 113.114 7.2 112.734 7.2C112.023 7.2 109.377 5.539 108.113 4.3C107.721 3.915 107.068 3.6 106.662 3.6C106.256 3.6 105.598 3.24 105.2 2.8C104.802 2.36 104.009 1.996 103.438 1.991C102.867 1.986 101.615 1.626 100.656 1.191C98.4072 0.169998 95.2242 0.186997 93.6002 1.227ZM5.5002 87.489C4.7852 87.578 4.2002 87.816 4.2002 88.017C4.2002 88.219 3.4962 88.743 2.6352 89.182C0.263196 90.392 0.200195 91.042 0.200195 114.353C0.200195 136.763 0.371196 138.981 2.1562 139.659C2.7242 139.875 3.5142 140.401 3.9112 140.827C4.6212 141.589 5.9952 141.6 89.3162 141.501L174 141.4L174.103 114.625C174.184 93.47 174.1 87.784 173.703 87.531C173.207 87.217 8.0282 87.176 5.5002 87.489ZM221.497 87.529C221.1 87.783 221.016 93.472 221.097 114.625L221.2 141.4L303.272 141.501L385.343 141.602L387.146 140.101C389.651 138.015 389.6 138.564 389.6 113.722V91.644L388.222 90.222C387.463 89.44 386.668 88.8 386.453 88.8C386.239 88.8 385.715 88.485 385.29 88.1C384.453 87.343 222.668 86.779 221.497 87.529ZM36.6032 170.259C35.6152 170.783 34.3552 171.663 33.8032 172.215L32.8002 173.218V263.119V353.02L33.7002 354.164C34.1952 354.793 34.6002 355.519 34.6002 355.778C34.6002 356.181 36.1832 357.881 39.6422 361.194C40.1422 361.673 41.0352 362.004 41.8422 362.009C42.5892 362.014 43.9852 362.374 44.9442 362.809C46.6582 363.586 47.7782 363.6 110.444 363.6H174.202L174.101 266.5L174 169.4L106.2 169.353L38.4002 169.306L36.6032 170.259ZM221.267 169.467C221.12 169.613 221 213.353 221 266.667V363.6H282.511C337.339 363.6 344.118 363.533 344.904 362.982C345.39 362.642 346.689 362.257 347.792 362.126C349.79 361.89 355.414 357.477 355.403 356.154C355.402 355.909 355.805 355.193 356.3 354.564L357.2 353.42V263.21V173L356.232 172.032C355.7 171.5 354.476 170.645 353.511 170.132L351.758 169.2H286.646C250.834 169.2 221.413 169.32 221.267 169.467Z" fill="white"/>
</svg>
