<svg width="34" height="27" viewBox="0 0 34 27" fill="none" xmlns="http://www.w3.org/2000/svg">
<path fill-rule="evenodd" clip-rule="evenodd" d="M2.95315 0.172529C0.0924283 1.05402 0.0777285 1.11642 0.0145535 12.6398C-0.0501965 24.4671 0.0147286 24.8881 2.08708 26.066L2.86679 26.5091H15.9043H28.9418L29.777 26.0118C31.1872 25.1721 31.556 24.4029 31.6255 22.1566L31.6841 20.2583L28.8255 20.1829C24.2512 20.0624 22.376 18.7077 22.381 15.5277C22.3861 12.2937 24.2046 10.9754 28.8286 10.8535L31.6904 10.778L31.6258 9.48085C31.5479 7.91828 30.9656 6.91846 29.7215 6.21141L28.9418 5.76823L16.195 5.67959L3.44823 5.59096L3.11372 5.17242C2.64813 4.58981 2.68742 3.80653 3.20883 3.27835L3.63837 2.84323H15.2838C21.6888 2.84323 26.9293 2.79936 26.9293 2.74582C26.9293 2.0744 25.5212 0.645226 24.5004 0.28031C23.6683 -0.0170646 3.88949 -0.115983 2.95315 0.172529ZM25.8254 11.9541C22.4121 12.9074 22.4118 18.366 25.8251 19.098C27.2947 19.4132 32.2842 19.2715 32.6859 18.9033C33.2533 18.3831 33.2537 12.6539 32.6864 12.1332C32.2109 11.6966 27.2144 11.5662 25.8254 11.9541ZM27.848 14.7555C28.3907 15.3913 28.2114 16.1852 27.4331 16.5929C26.4312 17.1178 25.3771 16.0321 25.8557 14.9682C26.2218 14.1541 27.2418 14.0453 27.848 14.7555Z" fill="#7CFC00"/>
</svg>