<svg width="306" height="169" viewBox="0 0 306 169" fill="none" xmlns="http://www.w3.org/2000/svg">
<g clip-path="url(#clip0_631_2)">
<path d="M156.381 138.452L155.733 136.559L205.591 93.7246L206.238 95.6166L156.381 138.452Z" fill="white"/>
<path d="M103.007 118.465L54.4316 38.7185L55.9667 37.4355L104.541 117.182L103.007 118.465Z" fill="white"/>
<path d="M140.914 14.5539L93.6074 14.3359V12.3359L140.914 12.5539V14.5539Z" fill="white"/>
<path d="M226.611 26.959H173.611C166.432 26.959 160.611 21.1387 160.611 13.959C160.611 6.77928 166.432 0.958984 173.611 0.958984H226.611C233.791 0.958984 239.611 6.77928 239.611 13.959C239.611 21.1387 233.791 26.959 226.611 26.959Z" fill="white"/>
<path d="M292.611 102.959H239.611C232.432 102.959 226.611 97.1387 226.611 89.959C226.611 82.7793 232.432 76.959 239.611 76.959H292.611C299.791 76.959 305.611 82.7793 305.611 89.959C305.611 97.1387 299.791 102.959 292.611 102.959Z" fill="white"/>
<path d="M206.914 156.553L159.607 156.336V154.336L206.914 154.553V156.553Z" fill="white"/>
<path d="M292.611 168.959H239.611C232.432 168.959 226.611 163.139 226.611 155.959C226.611 148.779 232.432 142.959 239.611 142.959H292.611C299.791 142.959 305.611 148.779 305.611 155.959C305.611 163.139 299.791 168.959 292.611 168.959Z" fill="white"/>
<path d="M137.611 160H84.6113C77.4316 160 71.6113 154.18 71.6113 147C71.6113 139.82 77.4316 134 84.6113 134H137.611C144.791 134 150.611 139.82 150.611 147C150.611 154.18 144.791 160 137.611 160Z" fill="white"/>
<path d="M65.6113 26H12.6113C5.43164 26 -0.388672 20.1797 -0.388672 13C-0.388672 5.8203 5.43164 0 12.6113 0H65.6113C72.791 0 78.6113 5.8203 78.6113 13C78.6113 20.1797 72.791 26 65.6113 26Z" fill="white"/>
</g>
<defs>
<clipPath id="clip0_631_2">
<rect width="306" height="169" fill="white"/>
</clipPath>
</defs>
</svg>
