<svg width="277" height="301" viewBox="0 0 277 301" fill="none" xmlns="http://www.w3.org/2000/svg">
<rect x="5.03774" y="7.03814" width="264" height="288" rx="45" transform="rotate(-0.434133 5.03774 7.03814)" stroke="white" stroke-width="10"/>
<path d="M214.306 93.6617L60.5496 94.8267C59.834 94.8368 59.1234 94.6953 58.4588 94.4105C57.7942 94.1256 57.1886 93.7029 56.6769 93.1667C56.1652 92.6306 55.7575 91.9915 55.4773 91.2863C55.197 90.5811 55.0498 89.8237 55.044 89.0576C55.0382 88.2915 55.1739 87.532 55.4435 86.8226C55.713 86.1132 56.111 85.4681 56.6145 84.9242C57.118 84.3804 57.717 83.9486 58.3773 83.6536C59.0375 83.3587 59.7459 83.2065 60.4616 83.2058L214.218 82.0408C215.652 82.0393 217.028 82.6452 218.047 83.7262C219.067 84.8072 219.645 86.2754 219.657 87.8103C219.668 89.3452 219.112 90.822 218.11 91.9183C217.107 93.0146 215.74 93.6414 214.306 93.6617L214.306 93.6617Z" fill="white"/>
<path d="M214.617 134.804L60.8611 135.969C60.1455 135.979 59.4349 135.838 58.7703 135.553C58.1057 135.268 57.5001 134.845 56.9884 134.309C56.4767 133.773 56.069 133.134 55.7888 132.429C55.5086 131.724 55.3614 130.966 55.3556 130.2C55.3497 129.434 55.4855 128.675 55.755 127.965C56.0245 127.256 56.4225 126.611 56.926 126.067C57.4295 125.523 58.0286 125.091 58.6888 124.796C59.349 124.501 60.0574 124.349 60.7731 124.348L214.529 123.183C215.963 123.182 217.34 123.788 218.359 124.869C219.378 125.95 219.957 127.418 219.968 128.953C219.98 130.488 219.424 131.965 218.421 133.061C217.419 134.157 216.051 134.784 214.617 134.804L214.617 134.804Z" fill="white"/>
<path d="M214.93 175.953L61.1736 177.118C60.458 177.128 59.7474 176.986 59.0828 176.701C58.4182 176.417 57.8126 175.994 57.3009 175.458C56.7892 174.922 56.3815 174.283 56.1013 173.577C55.8211 172.872 55.6739 172.115 55.6681 171.349C55.6622 170.583 55.798 169.823 56.0675 169.114C56.337 168.404 56.735 167.759 57.2385 167.215C57.742 166.671 58.3411 166.24 59.0013 165.945C59.6615 165.65 60.3699 165.498 61.0856 165.497L214.842 164.332C216.276 164.33 217.652 164.936 218.672 166.017C219.691 167.098 220.269 168.566 220.281 170.101C220.292 171.636 219.736 173.113 218.734 174.209C217.731 175.306 216.364 175.932 214.93 175.953L214.93 175.953Z" fill="white"/>
<path d="M215.241 217.1L61.4851 218.265C60.0454 218.276 58.6601 217.674 57.6338 216.592C56.6076 215.51 56.0245 214.036 56.0128 212.495C56.0011 210.954 56.5618 209.472 57.5716 208.374C58.5813 207.277 59.9574 206.654 61.397 206.643L215.153 205.478C216.593 205.467 217.978 206.069 219.004 207.151C220.031 208.233 220.614 209.707 220.626 211.248C220.637 212.789 220.076 214.271 219.067 215.369C218.057 216.466 216.681 217.089 215.241 217.1L215.241 217.1Z" fill="white"/>
</svg>
