<svg width="400" height="400" viewBox="0 0 400 400" fill="none" xmlns="http://www.w3.org/2000/svg">
<path fill-rule="evenodd" clip-rule="evenodd" d="M183.506 0.467628C183.32 1.02653 180.232 1.55444 176.79 1.61443C175.36 1.63942 172.75 1.90638 170.991 2.20632C169.231 2.50727 166.351 2.96619 164.591 3.22514C162.831 3.4841 160.221 4.03 158.791 4.43793C157.361 4.84586 155.205 5.30078 154.002 5.44775C152.797 5.59473 151.447 5.94366 151.002 6.22261C150.556 6.50057 149.292 6.8555 148.192 7.00948C147.092 7.16445 145.437 7.63337 144.514 8.05329C143.591 8.47222 142.369 8.81516 141.798 8.81516C141.227 8.81516 140.084 9.1601 139.257 9.58202C138.431 10.003 137.043 10.4779 136.174 10.6358C135.305 10.7938 133.925 11.2587 133.109 11.6687C132.293 12.0786 131.324 12.4145 130.956 12.4145C130.588 12.4145 129.726 12.7555 129.04 13.1714C128.354 13.5873 127.163 14.0602 126.393 14.2212C125.623 14.3822 124.363 14.8281 123.593 15.212C122.823 15.595 121.293 16.3058 120.193 16.7908C119.093 17.2757 117.294 18.0905 116.194 18.6014C115.094 19.1123 113.744 19.7382 113.194 19.9912C111.773 20.6461 109.897 21.5939 109.194 22.0108C108.864 22.2068 107.154 23.1106 105.394 24.0195C103.634 24.9273 101.294 26.1991 100.194 26.844C99.0945 27.4889 97.9246 28.1358 97.5946 28.2817C97.2646 28.4277 96.4857 28.9676 95.8637 29.4795C95.2418 29.9924 94.5748 30.4114 94.3818 30.4114C94.1888 30.4114 93.3479 30.8643 92.5129 31.4182C91.678 31.9721 90.657 32.647 90.244 32.9179C89.8311 33.1889 88.3011 34.2547 86.8442 35.2865C85.3873 36.3183 83.5964 37.5781 82.8654 38.086C82.1335 38.5939 80.0636 40.1806 78.2657 41.6124C76.4668 43.0431 74.5459 44.5089 73.9959 44.8688C73.446 45.2288 72.366 46.0946 71.5961 46.7925C70.8261 47.4904 69.3092 48.8141 68.2252 49.735C65.2774 52.2365 52.1001 65.4282 49.5893 68.3907C48.3833 69.8124 47.1214 71.2592 46.7834 71.6041C46.4454 71.95 45.6395 72.9459 44.9925 73.8177C44.3456 74.6896 42.8156 76.6632 41.5927 78.2029C39.5088 80.8265 38.3449 82.4232 37.3979 83.9549C37.178 84.3109 36.277 85.5916 35.3961 86.8014C34.5151 88.0112 33.6151 89.298 33.3962 89.6599C33.1772 90.0229 32.4132 91.1567 31.6983 92.1795C30.9833 93.2033 30.3983 94.1971 30.3983 94.3891C30.3983 94.5811 29.9863 95.2469 29.4824 95.8688C28.9794 96.4907 28.3454 97.4496 28.0745 97.9995C27.8045 98.5494 27.1565 99.7192 26.6345 100.599C25.7456 102.1 22.8387 107.577 21.6778 109.937C21.3918 110.52 20.9848 111.267 20.7749 111.597C20.5649 111.927 20.1959 112.647 19.9549 113.197C19.7139 113.747 19.058 115.186 18.497 116.396C17.936 117.606 17.1711 119.316 16.7961 120.196C16.4221 121.075 15.7431 122.605 15.2882 123.595C14.8322 124.585 14.3362 125.845 14.1852 126.394C14.0342 126.944 13.6682 127.934 13.3723 128.594C12.5903 130.34 11.6314 133.047 10.8014 135.849C10.4014 137.2 9.90145 138.639 9.68947 139.048C9.47848 139.457 9.0775 140.782 8.79952 141.992C8.52253 143.202 8.13155 144.398 7.93156 144.651C7.73157 144.904 7.38759 146.233 7.16661 147.604C6.94562 148.975 6.50664 150.597 6.18966 151.209C5.87368 151.821 5.5037 153.372 5.3677 154.655C5.23171 155.938 4.80374 157.889 4.41576 158.989C4.02778 160.089 3.5918 162.325 3.44581 163.959C3.30082 165.592 2.91684 167.841 2.59486 168.958C2.12488 170.583 1.21993 179.643 1.20393 182.885C1.20193 183.269 0.929949 183.584 0.599967 183.584C0.0759959 183.584 0 185.673 0 199.982C0 214.29 0.0759959 216.379 0.599967 216.379C0.954947 216.379 1.20093 216.746 1.20193 217.278C1.20793 220.601 2.11288 229.689 2.58686 231.19C2.90184 232.188 3.27482 234.257 3.41481 235.789C3.5548 237.321 3.99778 239.655 4.39976 240.974C4.80274 242.294 5.23671 244.274 5.3657 245.374C5.4947 246.473 5.96067 248.32 6.40065 249.478C6.83962 250.635 7.2006 252.074 7.2016 252.676C7.2036 253.279 7.44959 254.241 7.74857 254.814C8.04756 255.387 8.50453 256.827 8.76452 258.013C9.0235 259.2 9.47848 260.711 9.77446 261.371C10.3054 262.555 11.7024 266.633 12.3773 268.969C12.8433 270.583 14.5412 274.755 16.5281 279.168C17.0731 280.377 17.648 281.817 17.806 282.367C17.964 282.917 18.32 283.637 18.596 283.967C18.872 284.297 19.3099 285.228 19.5689 286.034C19.8279 286.841 20.2829 287.704 20.5799 287.95C20.8769 288.197 21.2388 288.872 21.3848 289.451C21.5298 290.029 21.9968 290.946 22.4238 291.487C22.8497 292.029 23.1987 292.796 23.1987 293.19C23.1987 293.585 23.4557 294.164 23.7687 294.478C24.0827 294.792 24.6286 295.66 24.9826 296.407C25.3366 297.153 26.0666 298.484 26.6045 299.364C27.1425 300.244 27.8065 301.414 28.0795 301.964C28.3524 302.513 29.4364 304.313 30.4873 305.963C32.9002 309.752 32.9822 309.875 34.1821 311.562C34.7291 312.332 35.3581 313.367 35.578 313.861C35.798 314.356 36.167 314.761 36.398 314.761C36.629 314.761 36.976 315.178 37.17 315.687C37.3629 316.196 38.5739 317.951 39.8598 319.586C41.1467 321.222 42.9426 323.55 43.8526 324.76C44.7625 325.969 46.0225 327.532 46.6524 328.231C47.2824 328.931 48.6043 330.461 49.5903 331.63C50.5762 332.801 54.733 337.087 58.8268 341.157C65.6124 347.9 67.2713 349.468 71.5961 353.226C73.048 354.486 77.4917 357.906 81.9955 361.225C83.4254 362.279 84.8573 363.369 85.1773 363.647C85.4973 363.925 86.6672 364.737 87.7772 365.449C88.8871 366.162 90.065 366.927 90.395 367.149C95.0658 370.292 100.858 373.742 103.535 374.977C104.272 375.318 105.082 375.767 105.335 375.976C106.11 376.616 110.445 378.75 110.973 378.75C111.246 378.75 111.78 379.092 112.158 379.51C112.537 379.929 113.446 380.383 114.18 380.521C114.913 380.659 115.719 381.019 115.97 381.321C116.221 381.624 116.914 381.991 117.51 382.136C118.51 382.382 121.964 383.869 123.751 384.823C124.168 385.046 125.428 385.552 126.551 385.947C127.674 386.342 129.853 387.149 131.393 387.74C132.933 388.331 134.913 389.002 135.793 389.23C136.672 389.459 137.865 389.891 138.443 390.191C139.021 390.49 140.461 390.94 141.643 391.19C142.825 391.441 144.278 391.893 144.872 392.197C145.466 392.5 146.316 392.748 146.76 392.748C147.204 392.748 148.946 393.198 150.631 393.747C152.316 394.297 154.294 394.747 155.027 394.747C155.761 394.747 157.313 395.095 158.476 395.52C159.639 395.946 161.851 396.416 163.391 396.564C164.931 396.713 167.631 397.174 169.391 397.588C171.151 398.002 173.76 398.352 175.19 398.365C179.196 398.401 183.325 398.953 183.5 399.475C183.751 400.229 215.426 400.144 215.716 399.389C215.878 398.968 217.281 398.769 221.459 398.575C224.5 398.433 228.607 397.975 230.587 397.555C232.567 397.136 235.357 396.68 236.787 396.542C238.217 396.403 240.423 395.943 241.689 395.519C242.954 395.094 244.506 394.747 245.138 394.747C245.768 394.747 247.662 394.297 249.347 393.747C251.032 393.198 252.81 392.747 253.298 392.746C253.787 392.744 254.667 392.492 255.255 392.185C255.843 391.879 257.252 391.429 258.386 391.185C259.52 390.942 260.806 390.551 261.245 390.316C261.684 390.082 262.975 389.646 264.113 389.348C265.253 389.051 266.725 388.525 267.385 388.18C268.045 387.835 268.89 387.553 269.262 387.551C269.635 387.55 270.535 387.202 271.262 386.778C271.99 386.354 273.254 385.886 274.071 385.736C274.888 385.587 275.765 385.214 276.02 384.907C276.275 384.6 276.794 384.349 277.174 384.349C277.555 384.349 278.712 383.899 279.747 383.349C280.781 382.799 281.863 382.349 282.151 382.349C282.44 382.349 283.105 382.013 283.63 381.602C284.155 381.191 285.157 380.729 285.856 380.576C286.556 380.424 287.336 380.049 287.588 379.745C287.841 379.44 288.709 378.976 289.516 378.712C290.323 378.449 291.413 377.9 291.938 377.492C292.463 377.084 293.217 376.75 293.614 376.75C294.012 376.75 294.43 376.6 294.543 376.416C294.812 375.982 302.607 371.551 303.104 371.551C303.313 371.551 303.704 371.287 303.972 370.964C304.24 370.641 305.612 369.734 307.021 368.946C308.43 368.158 309.583 367.359 309.583 367.172C309.583 366.984 310.078 366.631 310.683 366.388C311.288 366.144 312.503 365.4 313.383 364.736C315.109 363.43 317.704 361.598 318.739 360.953C319.466 360.501 320.941 359.295 322.042 358.254C322.449 357.869 322.874 357.554 322.987 357.554C324.768 357.554 345.497 337.787 351.981 329.907C352.751 328.971 353.775 327.744 354.256 327.182C356.781 324.232 357.58 323.233 357.58 323.025C357.58 322.899 357.985 322.355 358.48 321.816C359.954 320.212 360.504 319.502 362.084 317.176C362.911 315.958 364.081 314.257 364.684 313.398C366.519 310.781 366.915 310.174 368.713 307.238C369.665 305.681 370.7 304.195 371.013 303.936C371.325 303.677 371.58 303.254 371.58 302.996C371.58 302.737 372.346 301.275 373.281 299.746C374.217 298.216 375.205 296.515 375.478 295.965C375.75 295.415 376.155 294.695 376.376 294.365C376.598 294.035 376.959 293.315 377.178 292.765C377.398 292.215 377.753 291.495 377.968 291.165C378.184 290.836 378.63 289.936 378.961 289.166C379.292 288.396 379.735 287.496 379.945 287.166C380.155 286.836 380.77 285.576 381.311 284.367C381.853 283.157 382.765 281.174 383.337 279.961C383.91 278.749 384.379 277.466 384.379 277.111C384.379 276.756 384.63 276.258 384.937 276.003C385.244 275.748 385.619 274.871 385.771 274.054C385.922 273.238 386.391 272.008 386.813 271.322C387.234 270.636 387.579 269.774 387.579 269.406C387.579 269.038 387.924 268.062 388.346 267.235C388.767 266.409 389.242 265.021 389.4 264.151C389.558 263.282 389.998 261.941 390.377 261.171C390.756 260.401 391.189 258.97 391.339 257.991C391.49 257.012 391.791 255.998 392.008 255.736C392.225 255.474 392.675 253.954 393.008 252.357C393.341 250.761 393.778 249.147 393.979 248.772C394.18 248.396 394.538 246.848 394.774 245.332C395.01 243.815 395.458 241.764 395.769 240.774C396.08 239.785 396.452 237.895 396.596 236.575C396.74 235.255 397.2 232.603 397.618 230.68C398.036 228.758 398.384 226.059 398.391 224.681C398.41 221.135 399.045 216.623 399.55 216.455C400.15 216.255 400.15 183.708 399.55 183.508C399.045 183.34 398.41 178.828 398.391 175.282C398.384 173.904 398.034 171.205 397.614 169.283C397.194 167.36 396.724 164.618 396.57 163.188C396.416 161.758 396.049 160.005 395.756 159.292C395.462 158.579 395.032 156.632 394.8 154.967C394.569 153.302 394.205 151.614 393.992 151.216C393.779 150.818 393.347 149.344 393.031 147.942C392.716 146.539 392.178 144.671 391.835 143.791C391.493 142.912 391.205 141.742 391.194 141.192C391.184 140.642 390.846 139.652 390.444 138.992C390.042 138.332 389.597 137.073 389.456 136.193C389.314 135.313 388.834 133.88 388.389 133.008C387.943 132.137 387.578 131.058 387.576 130.609C387.575 130.161 387.216 129.254 386.779 128.594C386.342 127.934 385.981 127.124 385.978 126.794C385.975 126.464 385.529 125.295 384.988 124.195C384.447 123.095 383.998 122.033 383.992 121.835C383.985 121.637 383.508 120.468 382.932 119.236C382.355 118.004 381.517 116.186 381.069 115.196C380.62 114.207 380.105 113.127 379.923 112.797C379.741 112.467 378.786 110.547 377.801 108.531C376.815 106.514 375.822 104.748 375.594 104.607C375.366 104.466 375.179 104.023 375.179 103.623C375.179 103.224 374.907 102.671 374.574 102.395C374.242 102.119 373.606 101.152 373.162 100.246C371.888 97.6495 371.082 96.2448 370.574 95.7369C370.316 95.4789 369.875 94.713 369.594 94.0342C369.313 93.3553 368.954 92.8004 368.796 92.8004C368.638 92.8004 368.3 92.3435 368.046 91.7856C367.792 91.2277 367.398 90.5528 367.171 90.2858C366.944 90.0189 366.188 88.9011 365.491 87.8013C364.793 86.7015 363.853 85.3317 363.401 84.7578C362.95 84.1829 362.31 83.3 361.98 82.7951C361.65 82.2892 360.885 81.2954 360.28 80.5865C359.675 79.8777 359.18 79.1928 359.18 79.0638C359.18 78.9358 358.808 78.4199 358.353 77.917C357.898 77.4141 356.593 75.8234 355.453 74.3816C350.935 68.6666 338.387 55.5149 332.179 49.9849C329.179 47.3144 323.152 42.4092 322.867 42.4072C322.71 42.4062 321.874 41.7554 321.008 40.9605C319.333 39.4228 315.865 36.9122 311.557 34.1207C310.801 33.6308 309.913 33.0489 309.583 32.8279C306.709 30.9023 305.9 30.4114 305.596 30.4114C305.403 30.4114 304.736 29.9994 304.114 29.4955C303.492 28.9926 302.533 28.3587 301.983 28.0878C301.433 27.8178 300.263 27.1539 299.384 26.613C298.504 26.0721 297.109 25.3283 296.284 24.9603C295.459 24.5924 294.784 24.1525 294.784 23.9825C294.784 23.8135 294.109 23.4576 293.284 23.1926C292.459 22.9287 291.514 22.5047 291.184 22.2528C289.319 20.825 272.105 13.2164 268.985 12.4405C268.325 12.2755 267.245 11.8666 266.585 11.5317C265.925 11.1957 264.684 10.7948 263.827 10.6388C262.97 10.4839 261.876 10.0999 261.396 9.78499C260.917 9.47104 259.458 9.01712 258.155 8.77717C256.852 8.53721 255.594 8.18327 255.359 7.9893C255.124 7.79634 253.954 7.4434 252.759 7.20444C251.564 6.96648 249.956 6.52156 249.186 6.21462C248.416 5.90867 246.436 5.44775 244.787 5.1898C243.137 4.93284 241.44 4.53991 241.016 4.31695C240.592 4.09399 238.882 3.75905 237.216 3.57208C235.55 3.38511 233.107 2.96619 231.787 2.64025C230.467 2.3143 226.727 1.85238 223.475 1.61443C217.403 1.1695 216.388 0.992536 216.388 0.373645C216.388 -0.183257 183.692 -0.0892738 183.506 0.467628ZM171.791 124.301C172.308 124.681 173.99 127.079 173.99 127.436C173.99 128.211 176.862 133.535 177.39 133.738C177.727 133.867 180.655 133.794 183.897 133.576C195.978 132.762 201.456 132.677 210.134 133.167C215.004 133.441 219.557 133.811 220.252 133.987C221.888 134.403 223.77 133.319 224.166 131.732C224.322 131.106 224.681 130.324 224.963 129.994C225.244 129.664 225.669 128.813 225.908 128.103C226.146 127.392 226.531 126.582 226.764 126.303C226.998 126.024 227.502 125.393 227.887 124.902C228.688 123.879 234.953 124.402 238.074 125.752C238.892 126.106 240.113 126.394 240.787 126.394C241.461 126.394 242.682 126.675 243.5 127.018C244.318 127.362 246.066 127.888 247.386 128.189C250.392 128.872 253.347 129.868 255.265 130.842C256.079 131.256 257.11 131.594 257.556 131.594C258.003 131.594 259.407 132.068 260.677 132.649C265.256 134.743 266.201 135.142 267.185 135.39C268.39 135.695 269.509 136.598 270.585 138.134C272.004 140.16 274.77 144.557 275.401 145.791C275.739 146.451 276.539 147.801 277.179 148.791C277.819 149.78 278.692 151.332 279.118 152.238C279.545 153.145 280.095 154.011 280.34 154.162C280.585 154.313 280.785 154.761 280.785 155.159C280.785 155.556 281.12 156.31 281.53 156.835C281.94 157.36 282.412 158.239 282.581 158.789C282.751 159.339 283.203 160.239 283.587 160.788C283.971 161.338 284.411 162.373 284.566 163.088C284.721 163.803 285.008 164.388 285.205 164.388C285.401 164.388 285.849 165.378 286.201 166.587C286.553 167.797 286.994 168.787 287.181 168.787C287.368 168.787 287.644 169.372 287.796 170.087C287.947 170.802 288.383 172.016 288.764 172.786C289.52 174.314 290.559 177.166 291.385 179.985C291.675 180.975 292.179 182.415 292.504 183.184C292.829 183.954 293.225 185.394 293.384 186.384C293.544 187.374 293.839 188.388 294.04 188.637C294.24 188.886 294.667 190.416 294.987 192.036C295.307 193.657 295.835 195.702 296.159 196.582C296.484 197.462 296.757 198.891 296.766 199.756C296.776 200.621 297.137 202.601 297.568 204.155C297.999 205.71 298.543 209.32 298.776 212.179C299.01 215.039 299.395 218.548 299.632 219.978C301.344 230.302 299.748 251.358 297.191 252.17C296.75 252.31 296.163 252.644 295.886 252.912C295.089 253.687 288.982 257.727 285.384 259.862C281.955 261.896 276.714 264.77 276.435 264.77C276.247 264.77 275.664 265.104 275.139 265.512C274.614 265.92 273.524 266.469 272.717 266.732C271.91 266.996 271.033 267.472 270.768 267.79C270.503 268.109 270.014 268.369 269.68 268.369C269.346 268.369 268.333 268.716 267.429 269.141C263.234 271.111 261.193 271.969 260.705 271.969C260.413 271.969 259.502 272.329 258.682 272.769C257.861 273.209 256.913 273.569 256.575 273.569C256.238 273.569 254.893 274.019 253.586 274.568C249.059 276.474 247.961 276.12 245.575 271.985C245.24 271.403 244.731 270.666 244.444 270.348C243.708 269.53 240.948 264.886 240.027 262.914C239.601 262.004 239.058 261.139 238.82 260.991C237.884 260.413 238.33 258.373 239.487 257.94C240.577 257.533 242.7 256.606 245.786 255.186C246.666 254.781 247.836 254.243 248.386 253.99C251.06 252.76 252.375 251.912 253.166 250.908L254.03 249.809L253.108 249.105C251.22 247.663 250.013 247.384 248.787 248.109C248.168 248.474 247.358 248.773 246.986 248.773C246.614 248.773 245.814 249.126 245.209 249.557C244.603 249.989 243.356 250.511 242.439 250.717C241.521 250.923 240.369 251.351 239.879 251.669C239.388 251.987 238.209 252.369 237.259 252.519C236.308 252.668 235.138 253.046 234.659 253.359C234.179 253.671 232.644 254.11 231.247 254.334C229.85 254.557 228.5 254.91 228.247 255.117C227.994 255.324 226.348 255.71 224.588 255.974C222.828 256.238 221.046 256.636 220.629 256.859C219.889 257.252 217.503 257.494 205.557 258.383C199.835 258.808 197.964 258.735 184.79 257.572C181.026 257.24 175.865 256.254 172.191 255.164C170.871 254.773 169.139 254.359 168.343 254.246C167.546 254.132 166.071 253.664 165.065 253.206C164.058 252.747 162.82 252.371 162.313 252.371C161.806 252.37 160.836 252.031 160.158 251.617C159.479 251.204 158.309 250.736 157.558 250.576C156.806 250.417 155.63 249.946 154.944 249.53C154.259 249.114 153.387 248.773 153.007 248.773C152.626 248.773 151.81 248.474 151.191 248.109C149.965 247.384 148.758 247.663 146.87 249.105L145.948 249.809L146.807 250.901C147.279 251.501 148.234 252.248 148.929 252.56C149.624 252.873 150.642 253.381 151.192 253.691C152.774 254.581 158.498 257.196 160.491 257.94C161.621 258.362 162.102 260.408 161.202 260.964C160.989 261.096 160.448 261.962 160.001 262.887C159.554 263.812 158.751 265.29 158.216 266.17C157.682 267.05 156.877 268.427 156.428 269.232C155.98 270.037 155.473 270.757 155.302 270.832C155.131 270.907 154.721 271.433 154.391 272C152.364 275.482 152.276 275.563 150.48 275.565C149.538 275.567 147.699 275.118 146.392 274.568C145.085 274.019 143.74 273.569 143.403 273.569C143.065 273.569 142.117 273.209 141.296 272.769C140.476 272.329 139.551 271.969 139.242 271.969C138.707 271.969 137.617 271.511 132.953 269.325C131.831 268.799 130.689 268.369 130.415 268.369C130.141 268.369 129.439 268.034 128.855 267.622C128.271 267.211 127.343 266.737 126.793 266.567C126.243 266.398 125.364 265.925 124.839 265.515C124.314 265.105 123.56 264.77 123.163 264.77C122.765 264.77 122.337 264.603 122.211 264.399C122.085 264.196 120.5 263.201 118.688 262.191C114.85 260.048 114.679 259.946 110.994 257.618C107.361 255.324 104.721 253.524 104.092 252.912C103.815 252.644 103.228 252.31 102.787 252.17C101.555 251.779 100.85 249.984 100.406 246.109C99.8795 241.512 99.8915 223.329 100.423 219.978C100.65 218.548 101.081 214.859 101.381 211.779C101.682 208.7 102.128 205.551 102.373 204.781C102.619 204.011 103.004 201.95 103.229 200.202C103.454 198.454 103.989 195.985 104.416 194.716C104.844 193.447 105.194 191.813 105.194 191.085C105.194 190.357 105.442 189.406 105.746 188.972C106.049 188.539 106.52 187.111 106.791 185.8C107.063 184.489 107.515 183.049 107.795 182.601C108.075 182.152 108.429 181.073 108.582 180.204C108.736 179.334 109.206 177.946 109.627 177.121C110.049 176.294 110.394 175.291 110.394 174.891C110.394 174.491 110.644 173.807 110.949 173.372C111.254 172.936 111.735 171.771 112.018 170.784C112.301 169.795 112.75 168.717 113.016 168.387C113.282 168.057 113.631 167.337 113.792 166.787C113.953 166.237 114.405 165.248 114.796 164.588C115.188 163.928 115.629 162.815 115.777 162.116C115.924 161.416 116.292 160.638 116.594 160.388C116.896 160.139 117.254 159.425 117.391 158.803C117.528 158.181 117.989 157.355 118.416 156.968C118.843 156.582 119.193 156.038 119.193 155.761C119.193 155.214 121.684 150.546 124.087 146.591C124.354 146.151 124.953 145.161 125.417 144.391C129.095 138.295 131.679 135.193 133.08 135.193C133.682 135.193 134.222 134.972 139.301 132.649C140.571 132.068 142.016 131.594 142.512 131.594C143.008 131.594 143.774 131.342 144.215 131.033C144.655 130.725 145.82 130.266 146.804 130.014C147.787 129.762 149.132 129.307 149.792 129.002C150.452 128.697 152.072 128.181 153.392 127.854C156.004 127.207 157.799 126.746 162.391 125.546C164.848 124.903 167.518 124.439 170.991 124.052C171.211 124.027 171.571 124.139 171.791 124.301ZM162.253 188.238C160.967 188.549 159.661 189.056 159.351 189.366C159.04 189.677 158.394 190.055 157.915 190.207C156.085 190.788 152.693 194.628 151.401 197.582C151.064 198.352 150.489 199.522 150.122 200.181C149.104 202.012 148.877 211.141 149.788 213.579C151.101 217.089 151.425 217.796 152.465 219.41C162.397 234.827 184.79 226.601 184.79 207.534C184.79 203.95 183.421 198.543 182.161 197.151C181.847 196.803 181.59 196.315 181.59 196.065C181.59 195.426 176.805 190.383 176.198 190.383C175.923 190.383 175.21 190 174.615 189.531C172.459 187.835 166.498 187.212 162.253 188.238ZM229.187 188.187C225.251 189.08 220.539 192.542 218.927 195.726C218.578 196.417 218.061 197.252 217.78 197.582C217.32 198.122 216.859 199.562 215.537 204.581C215.002 206.615 215.282 210.352 216.182 213.179C217.008 215.774 219.255 220.377 219.697 220.377C219.866 220.378 220.195 220.783 220.428 221.278C222.532 225.761 233.652 229.192 238.335 226.804C239.226 226.349 240.198 225.977 240.496 225.977C240.793 225.977 241.423 225.617 241.895 225.177C242.367 224.737 242.903 224.377 243.085 224.377C243.991 224.377 249.186 217.984 249.186 216.87C249.186 216.613 249.538 215.723 249.969 214.891C251.681 211.582 251.413 202.612 249.487 198.782C245.026 189.907 237.929 186.204 229.187 188.187Z" fill="white"/>
</svg>
