<svg width="576" height="529" viewBox="0 0 576 529" fill="none" xmlns="http://www.w3.org/2000/svg">
<path fill-rule="evenodd" clip-rule="evenodd" d="M286.305 4.21401C284.428 7.8765 278.353 17.2732 254.357 53.6301C224.118 99.4467 216.879 114.835 215.176 136.918C214.021 151.907 218.625 170.508 226.597 183.048C240.8 205.392 267.719 218.768 294.399 216.737C314.556 215.203 335.927 202.44 347.699 184.905C352.798 177.309 357.627 166.367 359.403 158.387C361.4 149.414 360.918 129.728 358.488 121.026C354.719 107.524 342.138 84.6727 319.455 50.1306C312.774 39.957 303.805 25.784 299.524 18.635C295.243 11.486 290.913 4.54697 289.901 3.21415L288.06 0.791504L286.305 4.21401ZM330.92 114.247C328.486 116.515 328.488 116.588 331.204 126.58C335.659 142.965 329.996 162.402 317.471 173.72C309.062 181.319 291.797 188.111 280.888 188.111C277.264 188.111 275.562 190.187 276.412 193.572C277.456 197.731 280.741 199.174 290.495 199.758C298.218 200.22 300.319 199.957 307.202 197.668C311.531 196.228 316.987 193.928 319.326 192.558C328.808 187.001 338.565 173.595 343.597 159.211C345.916 152.581 346.258 150.028 346.284 139.118C346.317 125.32 345.161 119.866 341.208 115.166C338.131 111.511 334.232 111.162 330.92 114.247Z" fill="url(#paint0_linear_1441_193)"/>
<path fill-rule="evenodd" clip-rule="evenodd" d="M163.381 75.6604C158.675 80.3668 158.517 84.8272 162.925 88.5367C167.329 92.2421 171.217 91.9552 175.568 87.6048C178.589 84.5832 179 83.6273 178.469 80.8557C177.717 76.9263 172.712 72.1279 169.365 72.1279C167.893 72.1279 165.504 73.5387 163.381 75.6604ZM395.698 76.0094C390.409 81.2976 390.439 84.6492 395.819 89.5095C400.336 93.5899 402.12 93.8999 406.08 91.2882C411.811 87.5088 412.939 84.2052 410.265 79.033C408.703 76.0124 403.474 72.1389 400.947 72.1319C400.195 72.1299 397.833 73.8747 395.698 76.0094ZM73.1019 112.447C69.8514 114.253 67.6317 117.823 68.3506 120.088C69.1765 122.69 74.5507 127.12 76.8814 127.12C77.9082 127.12 79.9549 126.082 81.4287 124.815C85.1812 121.587 85.0102 117.54 80.9688 113.928C77.4863 110.817 76.4054 110.614 73.1019 112.447ZM484.726 114.045C481.105 117.667 481.037 120.081 484.46 123.505C487.968 127.012 491.205 127.741 494.293 125.718C499.077 122.583 498.82 115.218 493.837 112.64C489.662 110.481 488.041 110.731 484.726 114.045ZM7.47909 196.221C7.20413 197.535 6.69321 200.805 6.34426 203.487C5.99531 206.17 5.47239 208.982 5.18343 209.737C4.77248 210.807 6.00331 211.108 10.7946 211.108C18.3526 211.108 21.2932 212.307 33.6294 220.417C46.6046 228.949 50.2691 230.278 62.4334 230.866C77.1244 231.576 86.474 228.509 99.5202 218.701C107.217 212.915 112.327 211.096 120.73 211.152C129.211 211.208 132.672 212.496 144.052 219.831C157.836 228.716 163.107 230.492 175.847 230.539C189.108 230.588 196.893 228.124 207.712 220.456C211.907 217.483 216.165 214.775 217.172 214.441C219.187 213.771 219.143 213.487 215.659 204.888C212.854 197.967 212.414 197.996 202.119 205.804C190.729 214.44 180.299 217.375 169.163 215.077C161.869 213.571 157.225 211.222 148.912 204.833C145.304 202.061 139.877 198.625 136.852 197.201C131.927 194.881 130.153 194.612 119.854 194.618C105.946 194.626 101.734 196.177 89.7366 205.706C79.839 213.568 74.5427 215.435 63.5522 214.938C53.7376 214.493 48.0094 212.095 36.866 203.767C28.4182 197.453 23.1669 195.293 14.1732 194.428C8.235 193.857 7.95702 193.931 7.47909 196.221ZM441.309 195.452C433.428 197.499 427.614 200.462 419.82 206.399C411.363 212.843 403.972 215.335 393.354 215.321C384.617 215.309 378.821 213.195 368.588 206.29C360.248 200.662 358.821 200.169 358.821 202.914C358.821 203.906 357.451 206.878 355.775 209.52C352.237 215.1 351.683 214.25 363.675 221.652C385.249 234.967 405.322 234.596 426.528 220.49C439.31 211.987 442.652 210.794 452.217 211.315C461.19 211.804 464.093 212.972 473.14 219.728C494.591 235.748 516.13 235.854 539.018 220.05C550.722 211.969 553.068 211.108 563.377 211.108C571.859 211.108 572.013 211.065 571.414 208.859C571.079 207.621 570.295 203.737 569.672 200.227L568.539 193.845L560.368 194.355C550.466 194.973 539.616 199.533 530.888 206.747C522.769 213.458 517.926 215.323 507.199 215.87C496.045 216.438 492.91 215.251 478.81 205.113C473.467 201.272 467.351 197.4 465.218 196.509C460.1 194.371 447.598 193.818 441.309 195.452ZM0.694046 249.497L1.01801 258.102L6.28027 257.484C14.0702 256.568 21.0092 258.968 29.891 265.65C48.2414 279.455 64.1942 283.005 81.3528 277.101C88.2018 274.746 92.3992 272.271 100.313 265.925C113.956 254.984 127.499 255.3 143.054 266.923C153.929 275.047 165.031 279.099 176.422 279.099C188.538 279.099 196.251 275.98 212.526 264.499C220.122 259.142 224.649 257.733 232.295 258.346C239.814 258.95 245.762 261.498 252.248 266.898C271.823 283.19 296.199 283.067 319.332 266.559C335.018 255.366 346.657 255.342 361.948 266.471C374.889 275.888 383.654 279.11 396.276 279.086C405.539 279.068 417.326 274.992 426.34 268.691C438.879 259.927 442.234 258.6 451.808 258.621C461.34 258.641 463.718 259.542 472.805 266.573C484.425 275.564 499.849 280.967 510.107 279.638C518.451 278.557 528.955 274.061 539.477 267.068C552.425 258.463 554.864 257.666 565.867 258.447L574.581 259.065L574.984 250.835C575.231 245.791 574.982 242.297 574.339 241.81C573.763 241.374 568.566 241.158 562.792 241.332C553.534 241.61 551.525 242.009 545.788 244.709C542.209 246.393 536.81 249.771 533.789 252.216C524.557 259.689 522.243 261.028 515.669 262.713C503.319 265.877 494.707 263.521 479.904 252.928C465.602 242.693 462.874 241.598 451.808 241.643C439.947 241.692 434.467 243.704 423.312 252.108C413.346 259.615 409.005 261.736 401.003 263.007C389.37 264.856 382.217 262.474 367.662 251.91C350.992 239.808 337.71 238.157 321.515 246.172C318.112 247.855 313.194 251.027 310.589 253.219C307.982 255.409 303.258 258.418 300.09 259.902C295.035 262.27 293.106 262.601 284.331 262.6C273.004 262.599 269.684 261.329 258.335 252.649C255.035 250.125 249.461 246.627 245.949 244.877C240.288 242.056 238.581 241.689 230.951 241.654C219.954 241.605 212.726 244.214 203.252 251.652C193.801 259.071 188.213 261.856 180.089 263.198C170.187 264.833 164.894 263.043 149.827 252.966C135.108 243.12 130.178 241.104 120.812 241.104C109.29 241.104 100.307 244.929 87.8589 255.135C82.2036 259.773 78.7551 261.505 72.0331 263.085C61.2986 265.609 52.6728 262.883 38.8657 252.603C26.4774 243.379 22.477 241.792 10.3697 241.299L0.371094 240.891L0.694046 249.497ZM556.346 289.11C549.658 290.297 538.489 296.006 531.797 301.655C528.772 304.208 523.823 307.489 520.798 308.946C515.978 311.267 514.065 311.594 505.3 311.594C493.561 311.594 492.098 310.997 478.304 300.572C467.647 292.517 463.012 290.297 455.135 289.473C444.403 288.353 433.75 292.195 422.674 301.186C412.441 309.492 407.108 311.554 395.816 311.576C384.88 311.597 382.005 310.448 368.197 300.538C358.055 293.259 353.859 291.161 347.307 290.095C335.595 288.189 322.675 292.427 310.828 302.062C303.201 308.263 297.867 310.867 290.258 312.106C279.268 313.895 269.361 310.455 257.21 300.631C246.559 292.019 241.087 289.774 230.839 289.813C219.754 289.855 214.037 292.077 202.117 300.974C191.274 309.067 186.81 311.046 177.678 311.811C167.767 312.642 163.273 310.949 147.537 300.456C136.771 293.277 132.394 290.936 128.048 290.034C116.149 287.564 105.38 291.105 90.6734 302.327C79.716 310.687 74.7077 312.623 64.3621 312.496C54.5015 312.374 50.6171 310.76 38.3658 301.686C25.1026 291.862 20.1133 289.672 10.0187 289.24C2.27683 288.91 1.70591 289.02 2.18185 290.74C2.46481 291.761 2.97574 294.397 3.31769 296.596C4.87447 306.614 4.49751 306.093 10.1987 306.117C16.6448 306.144 21.5571 308.382 29.74 315.017C40.1015 323.42 49.1283 327.071 63.4193 328.641C74.4247 329.851 87.7679 324.893 99.9771 315.057C109.613 307.294 111.236 306.622 120.354 306.626C129.392 306.63 133.183 308.148 142.851 315.632C153.602 323.954 165.176 328.092 177.703 328.092C186.829 328.092 193.89 325.504 204.646 318.218C220.11 307.744 222.503 306.67 230.339 306.691C238.904 306.714 243.766 308.754 252.836 316.127C263.004 324.394 273.432 328.092 286.573 328.092C298.145 328.092 307.332 324.343 321.731 313.743C335.901 303.312 348.164 303.732 362.82 315.153C384.882 332.343 406.016 332.277 430.022 314.942C445.701 303.619 456.916 303.348 470.925 313.953C479.894 320.742 487.283 324.728 494.262 326.543C509.624 330.537 522.985 327.056 540.433 314.518C550.525 307.266 551.539 306.879 562.292 306.18L571.291 305.595L572.586 297.724C573.298 293.396 573.626 289.599 573.315 289.288C572.334 288.308 561.502 288.194 556.346 289.11ZM547.255 341.013C542.877 343.223 537.046 346.831 534.296 349.031C522.398 358.551 515.302 361.494 504.301 361.474C495.324 361.457 490.946 359.486 479.304 350.214C466.232 339.804 463.347 338.587 451.808 338.608C443.206 338.624 441.662 338.929 435.458 341.853C431.69 343.628 425.769 347.338 422.301 350.098C412.796 357.661 406.052 360.397 395.663 360.901C388.033 361.273 386.379 361.029 381.665 358.843C378.724 357.479 373.169 353.811 369.319 350.693C365.47 347.575 359.083 343.408 355.126 341.432C348.171 337.961 347.639 337.856 339.129 338.285C328.479 338.821 323.556 340.984 309.951 351.103C297.495 360.366 288.604 363.058 277.215 361.011C271.004 359.896 266.944 357.511 254.336 347.574C244.664 339.953 238.564 337.785 228.265 338.306C221.209 338.663 219.32 339.192 213.267 342.517C209.459 344.61 203.569 348.527 200.178 351.224C190.334 359.051 186.095 360.587 174.347 360.586C162.554 360.585 159.107 359.162 146.345 349.02C142.082 345.633 136.134 341.735 133.128 340.358C128.286 338.143 126.666 337.906 119.007 338.297C108.845 338.815 103.019 341.364 90.9184 350.581C80.2149 358.734 74.9147 361.162 66.4229 361.804C54.4415 362.71 47.0785 359.624 31.9287 347.341C25.3816 342.033 17.8826 338.091 14.3351 338.091C11.3566 338.091 11.3416 337.941 15.553 349.92C17.5377 355.563 18.7335 357.518 20.7492 358.414C22.189 359.054 26.4604 362.155 30.2409 365.306C40.7714 374.084 52.7217 377.614 69.5964 376.93C80.1579 376.502 87.7069 373.357 97.8574 365.155C107.471 357.387 113.037 354.838 120.391 354.838C128.122 354.838 133.501 357.176 141.351 363.948C148.885 370.447 155.343 373.667 164.872 375.673C180.696 379.006 193.886 375.636 208.842 364.441C219.637 356.359 223.709 354.738 231.759 355.316C239.292 355.857 243.679 357.838 252.336 364.607C264.113 373.817 275.458 377.607 288.985 376.853C295.392 376.496 298.041 375.753 305.274 372.283C310.026 370.003 316.59 366.078 319.862 363.559C334.956 351.945 347.783 351.66 360.627 362.653C372.531 372.843 385.117 377.554 398.696 376.905C406.233 376.545 408.519 375.972 415.318 372.744C419.653 370.685 426.385 366.561 430.277 363.58C438.726 357.109 443.971 355.081 452.184 355.11C459.707 355.137 464.341 357.126 472.315 363.75C485.054 374.332 494.219 377.588 509.255 376.879C516.987 376.514 519.386 375.943 525.797 372.944C529.922 371.013 536.02 367.164 539.349 364.389C547.009 358.002 551.136 355.871 555.072 356.271C558.103 356.579 558.272 356.377 561.036 349.139C564.753 339.401 564.494 337.679 559.253 337.294C556.143 337.065 553.382 337.921 547.255 341.013ZM332.849 386.687C326.303 388.446 321.863 390.959 310.76 399.192C299.383 407.628 293.479 410.202 285.067 410.392C281.363 410.476 276.307 409.964 273.833 409.252C269.403 407.979 267.236 406.532 253.336 395.572C244.072 388.267 237.379 385.744 228.839 386.338C220.964 386.887 214.035 390.165 198.667 400.617C185.882 409.313 182.64 410.556 172.847 410.522C163.01 410.488 156.745 407.617 145.711 398.081C141.129 394.123 135.575 389.961 133.367 388.833C127.734 385.958 117.534 385.366 111 387.536C105.292 389.431 94.3789 396.262 85.5381 403.472C77.9922 409.627 73.3609 411.215 63.1233 411.16C53.7476 411.11 49.5742 409.723 43.2741 404.56C38.3318 400.511 37.8658 400.387 37.8658 403.121C37.8658 408.003 48.5584 423.702 54.2446 427.169C58.056 429.493 65.532 429.643 75.2246 427.589C83.5385 425.827 88.1508 423.222 98.4584 414.462C106.676 407.478 114.542 403.108 118.922 403.092C125.029 403.069 131.867 406.231 140.539 413.09C154.548 424.17 167.468 428.521 181.581 426.913C189.328 426.03 198.622 421.31 208.462 413.262C218.191 405.305 224.537 402.661 232.026 403.443C239.452 404.219 245.061 406.91 252.414 413.223C259.707 419.486 268.206 423.635 277.926 425.677C292.583 428.758 304.346 425.12 319.428 412.843C329.866 404.348 332.48 403.08 339.524 403.092C346.803 403.104 352.871 405.849 362.238 413.368C375.11 423.699 385.494 427.506 399.167 426.908C407.404 426.547 409.285 426.095 415.238 423.042C418.946 421.139 424.98 417.23 428.645 414.353C440.796 404.818 443.418 403.576 451.308 403.62C459.63 403.667 464.588 405.883 472.49 413.087C483.416 423.049 496.012 428.334 508.8 428.325C519.634 428.317 523.586 426.705 528.205 420.408C534.058 412.43 541.41 397.082 539.38 397.082C537.493 397.082 532.728 399.79 528.741 403.129C521.289 409.368 516.072 411.239 505.966 411.3C500.409 411.334 496.047 410.818 493.802 409.862C491.877 409.042 485.353 404.407 479.304 399.564C464.892 388.025 459.98 385.756 450.448 386.237C441.541 386.687 434.311 390.022 421.312 399.679C409.392 408.534 405.196 410.331 395.168 410.876C388.073 411.263 386.33 411.003 381.67 408.868C378.726 407.519 373.372 403.914 369.771 400.858C360.23 392.758 351.438 387.382 345.734 386.158C339.658 384.855 339.667 384.855 332.849 386.687ZM114.585 437.053C102.806 440.768 87.7549 451.989 82.5806 460.912L80.8018 463.981L86.0661 467.526C88.9627 469.476 91.6573 471.072 92.0553 471.072C92.4522 471.072 94.9178 468.784 97.5335 465.989C103.973 459.104 109.543 456.002 116.605 455.368C124.658 454.645 129.464 456.255 136.373 461.99C150.059 473.353 157.947 477.152 170.663 478.511C183.136 479.843 193.232 476.078 209.022 464.21C226.725 450.904 234.528 450.828 250.879 463.806C262.992 473.42 271.949 477.354 282.93 477.885C297.095 478.57 304.698 475.697 319.326 464.131C330.497 455.299 335.973 453.344 344.573 455.119C351.771 456.604 355.995 458.736 362.912 464.37C376.122 475.131 385.247 478.604 398.224 477.81C410.915 477.033 418.458 474.126 427.56 466.501C431.823 462.93 437.694 458.836 440.607 457.401C445.318 455.081 446.715 454.854 453.225 455.346C462.035 456.013 465.687 457.742 476.621 466.428L484.807 472.929L489.148 470.503C491.534 469.168 494.303 467.177 495.3 466.075C497.05 464.141 497.048 464.002 495.207 461.966C491.68 458.066 470.914 443.028 465.007 440.097C455.104 435.184 451.144 434.59 444.309 436.993C436.518 439.73 429.756 443.93 419.753 452.242C410.407 460.009 404.2 462.498 394.316 462.445C386.182 462.401 380.827 459.832 368.927 450.26C355.621 439.556 349.388 436.577 340.302 436.577C331.16 436.577 323.929 440.064 310.542 450.93C298.97 460.321 292.61 462.685 281.123 461.86C272.968 461.275 268.457 459.134 260.335 451.994C245.017 438.529 238.484 435.378 227.871 436.34C220.217 437.035 209.363 442.734 197.84 452.111C189.038 459.275 180.55 463.073 173.347 463.073C165.296 463.073 157.749 459.459 145.554 449.762C128.218 435.979 123.773 434.154 114.585 437.053ZM220.84 489.295C212.704 492.142 206.825 495.58 198.147 502.567C194.406 505.578 189.868 508.326 188.063 508.672C186.258 509.018 179.059 509.096 172.065 508.845C157.521 508.324 154.047 507.265 143.58 500.163C134.023 493.678 128.867 491.069 125.611 491.069C120.386 491.069 120.71 498.015 126.067 500.885C127.796 501.811 133.47 505.406 138.679 508.875C150.635 516.84 154.949 519.013 167.901 523.594C186.347 530.118 193.776 528.688 209.022 515.679C218.949 507.208 221.987 505.72 229.339 505.724C236.448 505.728 240.061 507.392 250.836 515.629C263.115 525.015 272.063 528.064 287.329 528.064C302.089 528.064 311.954 523.936 325.517 512.081C336.065 502.862 349.468 504.411 363.82 516.513C366.845 519.062 372.659 522.812 376.739 524.843C383.445 528.182 384.937 528.538 392.237 528.544C399.642 528.549 401.211 528.164 411.066 523.912C424.699 518.03 439.838 509.454 446.411 503.887C449.216 501.512 452.766 498.657 454.299 497.543C459.728 493.598 454.456 488.07 445.266 488.07C441.041 488.07 440.076 488.566 434.532 493.583C431.182 496.614 424.137 501.424 418.876 504.27L409.314 509.445L397.815 509.866C382.823 510.414 379.658 509.486 370.304 501.784C359.78 493.118 353.918 489.633 347.421 488.179C336.613 485.76 324.758 490.179 312.236 501.294C302.398 510.028 296.598 512.446 285.331 512.513C274.084 512.579 269.339 510.465 256.335 499.593C242.514 488.037 232.634 485.17 220.84 489.295Z" fill="url(#paint1_linear_1441_193)"/>
<defs>
<linearGradient id="paint0_linear_1441_193" x1="287.823" y1="0.791504" x2="287.823" y2="216.94" gradientUnits="userSpaceOnUse">
<stop stop-color="#D41B2B"/>
<stop offset="1" stop-color="#6E0E16"/>
</linearGradient>
<linearGradient id="paint1_linear_1441_193" x1="288.5" y1="-68.4546" x2="288.5" y2="596.988" gradientUnits="userSpaceOnUse">
<stop stop-color="#D41B2B"/>
<stop offset="1" stop-color="#6E0E16"/>
</linearGradient>
</defs>
</svg>
