<svg width="697" height="692" viewBox="0 0 697 692" fill="none" xmlns="http://www.w3.org/2000/svg">
<path fill-rule="evenodd" clip-rule="evenodd" d="M327.391 0.560248C236.863 7.04273 155.844 45.6196 92.3458 112.474C79.9271 125.548 60.0077 151.737 50.599 167.359C41.0326 183.242 25.6634 214.926 19.8896 230.666C13.3844 248.4 5.86846 277.618 3.21521 295.483C-0.360248 319.569 -1.06399 359.137 1.66115 382.935C7.97282 438.065 30.0657 496.149 61.7346 540.875C77.8325 563.61 112.144 599.911 133.285 616.576C166.019 642.377 216.713 668.241 254.804 678.572C265.479 681.468 284.772 685.718 301.813 688.928C317.696 691.921 357.877 692.989 377.894 690.951C444.961 684.123 497.678 664.287 552.067 625.411C618.743 577.756 667.589 504.943 687.612 423.364C694.644 394.71 696.953 376.005 696.999 347.327C697.049 316.236 695.162 301.056 687.532 271.184C679.983 241.618 677.508 234.418 666.801 210.856C637.821 147.082 599.917 100.922 543.521 60.7233C508.535 35.786 462.211 15.5672 421.184 7.33168C392.365 1.54598 353.154 -1.28537 327.391 0.560248ZM321.17 22.586C318.888 22.9248 310.178 24.1607 301.813 25.333C293.448 26.5068 281.938 28.7132 276.234 30.2381C251.721 36.7897 245.658 38.6118 237.336 41.9215C232.495 43.8459 225.734 46.3925 222.312 47.5773C206.613 53.0187 176.411 70.0745 154.62 85.803C142.156 94.8002 115.902 119.097 102.655 133.894C71.6895 168.481 43.7246 219.607 32.9802 261.274C17.5267 321.203 17.3332 374.345 32.3581 431.306C50.599 500.452 103.237 571.482 169.081 615.799C182.086 624.551 215.898 641.738 233.373 648.478C254.32 656.557 264.345 659.445 290.061 664.805C310.993 669.168 312.328 669.273 347.439 669.302C387.974 669.337 396.82 668.264 431.779 659.08C463.025 650.873 490.088 639.42 515.773 623.538C598.736 572.237 655.226 488.754 670.403 395.023C680.651 331.724 670.323 267.032 640.053 204.931C607.285 137.703 546.032 78.4717 478.584 48.7911C453.025 37.5432 419.015 27.5616 395.831 24.5049C384.194 22.9704 328.271 21.534 321.17 22.586ZM332.231 48.9459C315.692 49.8459 299.999 52.3966 278.308 57.7081C234.316 68.4818 198.072 85.8929 165.108 112.086C105.763 159.239 66.0774 222.564 52.8983 291.138C47.4922 319.271 46.7954 371.19 51.4783 397.096C54.5049 413.842 63.5265 443.132 70.8682 460.042C92.0016 508.727 130.716 556.157 173.399 585.655C212.167 612.449 238.08 624.322 281.074 634.989C310.244 642.226 322.635 643.862 348.131 643.84C383.199 643.809 413.487 638.546 447.939 626.498C467.658 619.602 475.265 616.082 492.615 605.827C528.015 584.9 552.57 565.031 574.493 539.577C610.245 498.063 631.567 455.199 641.909 404.045C651.762 355.308 649.308 309.42 634.232 260.493C620.424 215.679 588.192 164.18 553.751 131.895C511.05 91.8707 469.868 69.4399 414.993 56.3215C405.76 54.1151 393.005 51.686 386.649 50.9242C373.381 49.3358 344.418 48.2823 332.231 48.9459ZM319.096 71.5385C281.262 75.8754 230.421 93.426 200.882 112.35C173.374 129.971 159.486 141.611 140.978 162.56C110.013 197.613 83.4846 248.544 74.622 289.954C67.9274 321.238 67.3052 359.399 72.9422 392.949C76.3517 413.251 77.9072 419.058 85.2807 439.049C98.7986 475.699 117.814 505.728 145.928 534.825C170.236 559.982 189.382 574.085 222.702 591.372C261.457 611.479 296.924 621.079 338.452 622.703C381.007 624.368 427.009 614.983 465.348 596.819C495.423 582.569 536.858 551.054 556.591 527.422C601.822 473.251 622.918 421.102 625.529 357.004C627.829 300.523 613.074 248.534 579.613 195.237C548.942 146.385 493.035 103.146 435.884 84.0791C407.187 74.5054 387.577 71.2164 356.426 70.7519C341.598 70.5307 324.799 70.886 319.096 71.5385ZM343.637 120.018C342.306 120.794 340.284 123.232 339.144 125.438C333.344 136.654 342.239 147.38 352.715 141.802C359.305 138.292 360.826 132.609 357.104 125.41C353.878 119.174 348.669 117.087 343.637 120.018ZM257.328 166.199C247.928 172.784 253.453 187.649 265.302 187.649C266.822 187.649 269.591 186.122 271.457 184.255C281.013 174.702 268.33 158.494 257.328 166.199ZM425.123 167.486C420.352 171.907 419.29 176.684 421.938 181.803C425.557 188.802 433.843 189.805 440.66 184.07C446.306 179.32 446.381 173.696 440.873 168.188C435.815 163.132 430.098 162.877 425.123 167.486ZM344.996 177.615C343.706 179.041 338.993 191.368 334.522 205.011C318.349 254.359 299.512 282.937 270.067 302.797C257.458 311.302 226.696 326.765 209.177 333.404C195.188 338.706 186.482 342.755 184.856 344.712C182.79 347.202 191.756 352.044 214.016 360.456C241.46 370.826 268.712 386.476 286.328 401.981C303.147 416.784 323.436 453.224 335.735 490.721C343.733 515.1 345.336 518.122 349.086 515.874C352.63 513.751 355.835 506.837 359.924 492.488C371.393 452.251 391.382 415.927 410.651 400.304C430.463 384.242 458.357 369.314 490.183 357.741C494.929 356.014 501.711 352.764 505.253 350.519C511.677 346.445 511.686 346.427 508.949 343.691C507.44 342.182 497.237 337.548 486.275 333.393C439.868 315.802 413.053 298.023 393.872 272.126C384 258.799 368.621 227.588 362.112 207.675C356.627 190.893 353.15 182.76 349.227 177.535C347.409 175.113 347.26 175.116 344.996 177.615ZM189.754 191.308C183.532 198.02 185.396 201.274 206.412 220.401C214.016 227.32 223.012 235.847 226.402 239.349C229.792 242.849 233.572 245.714 234.803 245.714C238.089 245.714 243.053 239.83 243.042 235.948C243.028 231.473 200.389 187.649 196.049 187.649C194.452 187.649 191.619 189.296 189.754 191.308ZM472.849 210.271C453.085 230.032 450.281 233.381 450.68 236.747C450.937 238.923 452.713 241.775 454.76 243.295C457.951 245.666 458.801 245.765 461.858 244.123C467.639 241.019 509.897 199.428 509.897 196.843C509.897 193.112 503.595 187.649 499.291 187.649C496.198 187.649 491.17 191.952 472.849 210.271ZM345.255 232.926C342.134 242.397 329.154 268.806 323.239 277.714C320.033 282.545 309.614 294.065 300.086 303.314C280.934 321.906 271.124 328.167 244.434 338.838C236.449 342.032 229.917 345.437 229.917 346.406C229.917 347.375 234.452 349.695 239.996 351.561C251.56 355.456 270.004 364.449 278.788 370.478C287.58 376.512 307.585 394.223 313.203 400.946C324.341 414.276 336.508 436.635 342.52 454.815C344.971 462.228 347.504 468.294 348.151 468.294C349.44 468.294 349.841 467.105 352.349 455.852C357.527 432.623 375.252 404.69 397.053 385.403C404.323 378.973 412.622 372.252 415.495 370.467C427.873 362.779 445.957 354.583 457.026 351.646C463.588 349.904 469.164 347.856 469.417 347.096C469.671 346.334 464.106 343.952 457.051 341.801C443.233 337.587 426.279 329.331 413.493 320.587C405.982 315.452 384.668 293.559 374.66 280.703C369.695 274.326 362.001 258.47 354.846 239.873C352.292 233.24 349.475 227.796 348.584 227.776C347.692 227.757 346.194 230.075 345.255 232.926ZM346.874 247.134C346.805 249.817 345.748 253.438 344.528 255.18C341.663 259.271 338.574 282.434 338.416 301.013C338.349 308.997 337.862 317.865 337.335 320.718L336.378 325.906L329.465 318.835C323.408 312.639 310.655 303.828 307.689 303.791C305.634 303.766 306.72 311.472 309.344 315.53C310.819 317.811 315.458 323.41 319.653 327.972L327.281 336.267L312.473 337.117C286.453 338.61 265.908 342.494 266.906 345.73C268.54 351.032 297.575 357.008 316.659 355.971L327.358 355.389L320.528 362.61C308.723 375.093 301.409 389.493 306.876 389.493C310.03 389.493 321.305 382.009 329.465 374.5L337.761 366.867L338.682 387.512C339.807 412.758 341.566 422.505 345.599 425.846C348.2 428.002 348.857 428.068 350.575 426.35C353.647 423.278 356.191 408.596 357.249 387.825L358.216 368.877L364.556 374.459C370.215 379.44 386.363 389.493 388.705 389.493C390.753 389.493 389.334 384.22 385.479 377.5C383.223 373.565 378.251 367.655 374.432 364.366C370.613 361.077 367.489 357.921 367.487 357.35C367.487 356.779 372.73 356.313 379.14 356.313C400.647 356.313 424.866 351.101 424.866 346.472C424.866 341.986 394.176 336.075 376.575 337.17C371.507 337.485 368.867 337.117 368.869 336.095C368.869 335.241 372.382 330.607 376.675 325.796C385.658 315.729 390.966 305.471 388.105 303.704C385.388 302.024 379.519 305.677 369.022 315.578C363.811 320.494 359.247 324.516 358.881 324.516C358.513 324.516 357.774 316.583 357.237 306.889C355.913 282.976 352.905 260.559 349.676 250.553C347.196 242.866 346.991 242.616 346.874 247.134ZM164.349 260.353C158.75 265.063 158.363 273.141 163.489 278.265C167.606 282.383 169.659 282.478 176.719 278.877C185.508 274.392 185.999 264.57 177.685 259.501C171.804 255.915 169.444 256.066 164.349 260.353ZM517.704 260.164C512.864 264.648 512.752 271.565 517.435 276.618C521.012 280.477 524.159 281.093 529.641 279.01C535.165 276.91 537.55 273.539 537.55 267.835C537.55 257.758 525.377 253.054 517.704 260.164ZM125.881 339.885C119.921 341.607 116.466 346.765 118.602 350.757C120.786 354.838 125.558 356.313 136.58 356.313C145.183 356.313 146.334 355.973 148.932 352.67C152.646 347.95 152.545 345.874 148.404 341.735C145.611 338.941 143.717 338.363 137.689 338.465C133.663 338.534 128.349 339.173 125.881 339.885ZM548.134 340.869C544.778 344.576 545.19 351.549 548.919 354.16C552.872 356.929 566.76 357.008 572.016 354.29C578.106 351.141 579.577 344.664 575.117 340.629C571.309 337.183 551.308 337.36 548.134 340.869ZM164.625 414.34C159.345 417.559 157.742 422.526 160.129 428.284C163.854 437.277 171.204 438.798 178.783 432.144C182.989 428.451 183.678 427.042 183.324 422.856C183 419.024 181.858 417.218 178.209 414.767C172.471 410.914 170.353 410.848 164.625 414.34ZM516.321 416.385C511.207 421.124 511.345 427.883 516.674 433.586C521.177 438.406 525.525 439.033 530.674 435.604C539.072 430.013 540.131 422.324 533.295 416.574C527.752 411.91 521.229 411.836 516.321 416.385ZM209.177 467.564C189.825 487.189 187.003 490.617 186.631 494.965C186.168 500.393 189.916 505.622 194.27 505.622C195.576 505.622 207.398 494.87 220.54 481.729C246.208 456.065 247.602 453.78 241.235 447.798C235.208 442.138 232.774 443.638 209.177 467.564ZM451.35 448.703C446.105 454.499 446.79 455.452 483.538 493.525C493.979 504.343 495.742 505.622 500.205 505.622C506.405 505.622 508.515 503.613 508.515 497.708C508.515 493.725 506.286 490.772 491.77 475.519C464.681 447.058 463.675 446.175 458.344 446.175C455.541 446.175 452.714 447.198 451.35 448.703ZM256.48 509.786C251.812 513.458 250.565 519.452 253.348 524.834C257.622 533.1 265.944 534.316 272.223 527.595C276.745 522.755 277.169 519.734 274.147 513.889C270.398 506.642 262.737 504.863 256.48 509.786ZM422.224 511.258C418.271 515.954 417.881 518.148 420.2 522.648C425.593 533.118 432.728 534.673 440.361 527.04C446.219 521.183 445.856 516.694 439.046 510.806C432.935 505.522 426.914 505.684 422.224 511.258ZM341.526 549.249C339.016 551.004 338.452 552.727 338.452 558.618C338.452 568.001 341.153 571.981 347.518 571.981C354.263 571.981 357.809 567.997 357.809 560.416C357.809 549.368 349.497 543.666 341.526 549.249Z" fill="url(#paint0_linear_1432_228)"/>
<defs>
<linearGradient id="paint0_linear_1432_228" x1="348.5" y1="0" x2="348.5" y2="692" gradientUnits="userSpaceOnUse">
<stop stop-color="#00F2A5"/>
<stop offset="1" stop-color="#6EBAB8"/>
</linearGradient>
</defs>
</svg>
